%TF.GenerationSoftware,KiCad,Pcbnew,(6.0.1)*%
%TF.CreationDate,2022-01-21T21:00:34+01:00*%
%TF.ProjectId,apu-m2,6170752d-6d32-42e6-9b69-6361645f7063,rev?*%
%TF.SameCoordinates,Original*%
%TF.FileFunction,Copper,L1,Top*%
%TF.FilePolarity,Positive*%
%FSLAX46Y46*%
G04 Gerber Fmt 4.6, Leading zero omitted, Abs format (unit mm)*
G04 Created by KiCad (PCBNEW (6.0.1)) date 2022-01-21 21:00:34*
%MOMM*%
%LPD*%
G01*
G04 APERTURE LIST*
G04 Aperture macros list*
%AMRoundRect*
0 Rectangle with rounded corners*
0 $1 Rounding radius*
0 $2 $3 $4 $5 $6 $7 $8 $9 X,Y pos of 4 corners*
0 Add a 4 corners polygon primitive as box body*
4,1,4,$2,$3,$4,$5,$6,$7,$8,$9,$2,$3,0*
0 Add four circle primitives for the rounded corners*
1,1,$1+$1,$2,$3*
1,1,$1+$1,$4,$5*
1,1,$1+$1,$6,$7*
1,1,$1+$1,$8,$9*
0 Add four rect primitives between the rounded corners*
20,1,$1+$1,$2,$3,$4,$5,0*
20,1,$1+$1,$4,$5,$6,$7,0*
20,1,$1+$1,$6,$7,$8,$9,0*
20,1,$1+$1,$8,$9,$2,$3,0*%
G04 Aperture macros list end*
%TA.AperFunction,SMDPad,CuDef*%
%ADD10RoundRect,0.140000X-0.140000X-0.170000X0.140000X-0.170000X0.140000X0.170000X-0.140000X0.170000X0*%
%TD*%
%TA.AperFunction,SMDPad,CuDef*%
%ADD11RoundRect,0.140000X-0.170000X0.140000X-0.170000X-0.140000X0.170000X-0.140000X0.170000X0.140000X0*%
%TD*%
%TA.AperFunction,SMDPad,CuDef*%
%ADD12RoundRect,0.135000X0.135000X0.185000X-0.135000X0.185000X-0.135000X-0.185000X0.135000X-0.185000X0*%
%TD*%
%TA.AperFunction,SMDPad,CuDef*%
%ADD13RoundRect,0.135000X-0.185000X0.135000X-0.185000X-0.135000X0.185000X-0.135000X0.185000X0.135000X0*%
%TD*%
%TA.AperFunction,SMDPad,CuDef*%
%ADD14RoundRect,0.140000X0.170000X-0.140000X0.170000X0.140000X-0.170000X0.140000X-0.170000X-0.140000X0*%
%TD*%
%TA.AperFunction,SMDPad,CuDef*%
%ADD15RoundRect,0.250000X-0.250000X-0.475000X0.250000X-0.475000X0.250000X0.475000X-0.250000X0.475000X0*%
%TD*%
%TA.AperFunction,SMDPad,CuDef*%
%ADD16R,0.600000X2.330000*%
%TD*%
%TA.AperFunction,ComponentPad*%
%ADD17R,4.500000X4.500000*%
%TD*%
%TA.AperFunction,SMDPad,CuDef*%
%ADD18R,1.550000X0.300000*%
%TD*%
%TA.AperFunction,SMDPad,CuDef*%
%ADD19R,2.750000X1.200000*%
%TD*%
%TA.AperFunction,ViaPad*%
%ADD20C,0.450000*%
%TD*%
%TA.AperFunction,ViaPad*%
%ADD21C,0.650000*%
%TD*%
%TA.AperFunction,ViaPad*%
%ADD22C,0.460000*%
%TD*%
%TA.AperFunction,Conductor*%
%ADD23C,0.214000*%
%TD*%
%TA.AperFunction,Conductor*%
%ADD24C,0.100000*%
%TD*%
%TA.AperFunction,Conductor*%
%ADD25C,0.300000*%
%TD*%
%TA.AperFunction,Conductor*%
%ADD26C,0.500000*%
%TD*%
%TA.AperFunction,Conductor*%
%ADD27C,0.650000*%
%TD*%
G04 APERTURE END LIST*
D10*
%TO.P,C1,1*%
%TO.N,/~{PERST}*%
X119320000Y-80100000D03*
%TO.P,C1,2*%
%TO.N,GND*%
X120280000Y-80100000D03*
%TD*%
D11*
%TO.P,C8,1*%
%TO.N,+3V3*%
X115300000Y-74020000D03*
%TO.P,C8,2*%
%TO.N,GND*%
X115300000Y-74980000D03*
%TD*%
D12*
%TO.P,R7,1*%
%TO.N,/~{PEWAKE}*%
X117810000Y-77100000D03*
%TO.P,R7,2*%
%TO.N,Net-(J2-Pad54)*%
X116790000Y-77100000D03*
%TD*%
%TO.P,R6,1*%
%TO.N,/~{CLKREQ}*%
X117810000Y-78100000D03*
%TO.P,R6,2*%
%TO.N,Net-(J2-Pad52)*%
X116790000Y-78100000D03*
%TD*%
%TO.P,R5,1*%
%TO.N,GND*%
X120310000Y-79100000D03*
%TO.P,R5,2*%
%TO.N,/~{CLKREQ}*%
X119290000Y-79100000D03*
%TD*%
D13*
%TO.P,R4,1*%
%TO.N,/~{PERST}*%
X117900000Y-80090000D03*
%TO.P,R4,2*%
%TO.N,Net-(J1-Pad22)*%
X117900000Y-81110000D03*
%TD*%
D11*
%TO.P,C7,1*%
%TO.N,+3V3*%
X115300000Y-90720000D03*
%TO.P,C7,2*%
%TO.N,GND*%
X115300000Y-91680000D03*
%TD*%
D14*
%TO.P,C6,1*%
%TO.N,+3V3*%
X115300000Y-86180000D03*
%TO.P,C6,2*%
%TO.N,GND*%
X115300000Y-85220000D03*
%TD*%
%TO.P,C5,1*%
%TO.N,+3V3*%
X115300000Y-71980000D03*
%TO.P,C5,2*%
%TO.N,GND*%
X115300000Y-71020000D03*
%TD*%
D15*
%TO.P,C4,1*%
%TO.N,+3V3*%
X116550000Y-87100000D03*
%TO.P,C4,2*%
%TO.N,GND*%
X118450000Y-87100000D03*
%TD*%
%TO.P,C3,1*%
%TO.N,+3V3*%
X116600000Y-73100000D03*
%TO.P,C3,2*%
%TO.N,GND*%
X118500000Y-73100000D03*
%TD*%
%TO.P,C2,1*%
%TO.N,+3V3*%
X116600000Y-90000000D03*
%TO.P,C2,2*%
%TO.N,GND*%
X118500000Y-90000000D03*
%TD*%
D12*
%TO.P,R3,1*%
%TO.N,+3V3*%
X120310000Y-77100000D03*
%TO.P,R3,2*%
%TO.N,/~{PEWAKE}*%
X119290000Y-77100000D03*
%TD*%
%TO.P,R2,1*%
%TO.N,+3V3*%
X120305000Y-78100000D03*
%TO.P,R2,2*%
%TO.N,/~{CLKREQ}*%
X119285000Y-78100000D03*
%TD*%
D16*
%TO.P,J1,1,~{WAKE}*%
%TO.N,/~{PEWAKE}*%
X103125000Y-101815000D03*
%TO.P,J1,3,COEX1*%
%TO.N,unconnected-(J1-Pad3)*%
X103925000Y-101815000D03*
%TO.P,J1,5,COEX2*%
%TO.N,unconnected-(J1-Pad5)*%
X104725000Y-101815000D03*
%TO.P,J1,7,~{CLKREQ}*%
%TO.N,/~{CLKREQ}*%
X105525000Y-101815000D03*
%TO.P,J1,9,GND*%
%TO.N,GND*%
X106325000Y-101815000D03*
%TO.P,J1,11,REFCLK-*%
%TO.N,/REFCLK-*%
X107125000Y-101815000D03*
%TO.P,J1,13,REFCLK+*%
%TO.N,/REFCLK+*%
X107925000Y-101815000D03*
%TO.P,J1,15,GND*%
%TO.N,GND*%
X108725000Y-101815000D03*
%TO.P,J1,17,UIM_C8*%
%TO.N,unconnected-(J1-Pad17)*%
X112725000Y-101815000D03*
%TO.P,J1,19,UIM_C4*%
%TO.N,unconnected-(J1-Pad19)*%
X113525000Y-101815000D03*
%TO.P,J1,21,GND*%
%TO.N,GND*%
X114325000Y-101815000D03*
%TO.P,J1,23,PERn0*%
%TO.N,/PER0-*%
X115125000Y-101815000D03*
%TO.P,J1,25,PERp0*%
%TO.N,/PER0+*%
X115925000Y-101815000D03*
%TO.P,J1,27,GND*%
%TO.N,GND*%
X116725000Y-101815000D03*
%TO.P,J1,29,GND*%
X117525000Y-101815000D03*
%TO.P,J1,31,PETn0*%
%TO.N,/PET0-*%
X118325000Y-101815000D03*
%TO.P,J1,33,PETp0*%
%TO.N,/PET0+*%
X119125000Y-101815000D03*
%TO.P,J1,35,GND*%
%TO.N,GND*%
X119925000Y-101815000D03*
%TO.P,J1,37,GND*%
X120725000Y-101815000D03*
%TO.P,J1,39,+3V3AUX*%
%TO.N,+3V3*%
X121525000Y-101815000D03*
%TO.P,J1,41,+3V3AUX*%
X122325000Y-101815000D03*
%TO.P,J1,43,GND*%
%TO.N,GND*%
X123125000Y-101815000D03*
%TO.P,J1,45,Reserved*%
%TO.N,unconnected-(J1-Pad45)*%
X123925000Y-101815000D03*
%TO.P,J1,47,Reserved*%
%TO.N,unconnected-(J1-Pad47)*%
X124725000Y-101815000D03*
%TO.P,J1,49,Reserved*%
%TO.N,unconnected-(J1-Pad49)*%
X125525000Y-101815000D03*
%TO.P,J1,51,Reserved*%
%TO.N,unconnected-(J1-Pad51)*%
X126325000Y-101815000D03*
D17*
%TO.P,J1,MH*%
%TO.N,N/C*%
X127025000Y-55150000D03*
X102825000Y-55150000D03*
%TD*%
D18*
%TO.P,J2,1,GND*%
%TO.N,GND*%
X105600000Y-90850000D03*
%TO.P,J2,2,3.3V*%
%TO.N,+3V3*%
X113050000Y-90600000D03*
%TO.P,J2,3,GND*%
%TO.N,GND*%
X105600000Y-90350000D03*
%TO.P,J2,4,3.3V*%
%TO.N,+3V3*%
X113050000Y-90100000D03*
%TO.P,J2,5,PERn3*%
%TO.N,unconnected-(J2-Pad5)*%
X105600000Y-89850000D03*
%TO.P,J2,6,NC*%
%TO.N,unconnected-(J2-Pad6)*%
X113050000Y-89600000D03*
%TO.P,J2,7,PERp3*%
%TO.N,unconnected-(J2-Pad7)*%
X105600000Y-89350000D03*
%TO.P,J2,8,NC*%
%TO.N,unconnected-(J2-Pad8)*%
X113050000Y-89100000D03*
%TO.P,J2,9,GND*%
%TO.N,GND*%
X105600000Y-88850000D03*
%TO.P,J2,10,DAS/~{DSS}/~{LED1}*%
%TO.N,unconnected-(J2-Pad10)*%
X113050000Y-88600000D03*
%TO.P,J2,11,PETn3*%
%TO.N,unconnected-(J2-Pad11)*%
X105600000Y-88350000D03*
%TO.P,J2,12,3.3V*%
%TO.N,+3V3*%
X113050000Y-88100000D03*
%TO.P,J2,13,PETp3*%
%TO.N,unconnected-(J2-Pad13)*%
X105600000Y-87850000D03*
%TO.P,J2,14,3.3V*%
%TO.N,+3V3*%
X113050000Y-87600000D03*
%TO.P,J2,15,GND*%
%TO.N,GND*%
X105600000Y-87350000D03*
%TO.P,J2,16,3.3V*%
%TO.N,+3V3*%
X113050000Y-87100000D03*
%TO.P,J2,17,PERn2*%
%TO.N,unconnected-(J2-Pad17)*%
X105600000Y-86850000D03*
%TO.P,J2,18,3.3V*%
%TO.N,+3V3*%
X113050000Y-86600000D03*
%TO.P,J2,19,PERp2*%
%TO.N,unconnected-(J2-Pad19)*%
X105600000Y-86350000D03*
%TO.P,J2,20,NC*%
%TO.N,unconnected-(J2-Pad20)*%
X113050000Y-86100000D03*
%TO.P,J2,21,GND*%
%TO.N,GND*%
X105600000Y-85850000D03*
%TO.P,J2,22,NC*%
%TO.N,unconnected-(J2-Pad22)*%
X113050000Y-85600000D03*
%TO.P,J2,23,PETn2*%
%TO.N,unconnected-(J2-Pad23)*%
X105600000Y-85350000D03*
%TO.P,J2,24,NC*%
%TO.N,unconnected-(J2-Pad24)*%
X113050000Y-85100000D03*
%TO.P,J2,25,PETp2*%
%TO.N,unconnected-(J2-Pad25)*%
X105600000Y-84850000D03*
%TO.P,J2,26,NC*%
%TO.N,unconnected-(J2-Pad26)*%
X113050000Y-84600000D03*
%TO.P,J2,27,GND*%
%TO.N,GND*%
X105600000Y-84350000D03*
%TO.P,J2,28,NC*%
%TO.N,unconnected-(J2-Pad28)*%
X113050000Y-84100000D03*
%TO.P,J2,29,PERn1*%
%TO.N,unconnected-(J2-Pad29)*%
X105600000Y-83850000D03*
%TO.P,J2,30,NC*%
%TO.N,unconnected-(J2-Pad30)*%
X113050000Y-83600000D03*
%TO.P,J2,31,PERp1*%
%TO.N,unconnected-(J2-Pad31)*%
X105600000Y-83350000D03*
%TO.P,J2,32,NC*%
%TO.N,unconnected-(J2-Pad32)*%
X113050000Y-83100000D03*
%TO.P,J2,33,GND*%
%TO.N,GND*%
X105600000Y-82850000D03*
%TO.P,J2,34,NC*%
%TO.N,unconnected-(J2-Pad34)*%
X113050000Y-82600000D03*
%TO.P,J2,35,PETn1*%
%TO.N,unconnected-(J2-Pad35)*%
X105600000Y-82350000D03*
%TO.P,J2,36,NC*%
%TO.N,unconnected-(J2-Pad36)*%
X113050000Y-82100000D03*
%TO.P,J2,37,PETp1*%
%TO.N,unconnected-(J2-Pad37)*%
X105600000Y-81850000D03*
%TO.P,J2,38,DEVSLP*%
%TO.N,unconnected-(J2-Pad38)*%
X113050000Y-81600000D03*
%TO.P,J2,39,GND*%
%TO.N,GND*%
X105600000Y-81350000D03*
%TO.P,J2,40,NC*%
%TO.N,unconnected-(J2-Pad40)*%
X113050000Y-81100000D03*
%TO.P,J2,41,PERn0/SATA-B+*%
%TO.N,/PER0+*%
X105600000Y-80850000D03*
%TO.P,J2,42,NC*%
%TO.N,unconnected-(J2-Pad42)*%
X113050000Y-80600000D03*
%TO.P,J2,43,PERp0/SATA-B-*%
%TO.N,/PER0-*%
X105600000Y-80350000D03*
%TO.P,J2,44,NC*%
%TO.N,unconnected-(J2-Pad44)*%
X113050000Y-80100000D03*
%TO.P,J2,45,GND*%
%TO.N,GND*%
X105600000Y-79850000D03*
%TO.P,J2,46,NC*%
%TO.N,unconnected-(J2-Pad46)*%
X113050000Y-79600000D03*
%TO.P,J2,47,PETn0/SATA-A-*%
%TO.N,/PET0-*%
X105600000Y-79350000D03*
%TO.P,J2,48,NC*%
%TO.N,unconnected-(J2-Pad48)*%
X113050000Y-79100000D03*
%TO.P,J2,49,PETp0/SATA-A+*%
%TO.N,/PET0+*%
X105600000Y-78850000D03*
%TO.P,J2,50,~{PERST}*%
%TO.N,/~{PERST}*%
X113050000Y-78600000D03*
%TO.P,J2,51,GND*%
%TO.N,GND*%
X105600000Y-78350000D03*
%TO.P,J2,52,~{CLKREQ}*%
%TO.N,Net-(J2-Pad52)*%
X113050000Y-78100000D03*
%TO.P,J2,53,REFCLKn*%
%TO.N,/REFCLK+*%
X105600000Y-77850000D03*
%TO.P,J2,54,~{PEWAKE}*%
%TO.N,Net-(J2-Pad54)*%
X113050000Y-77600000D03*
%TO.P,J2,55,REFCLKp*%
%TO.N,/REFCLK-*%
X105600000Y-77350000D03*
%TO.P,J2,56,NC*%
%TO.N,unconnected-(J2-Pad56)*%
X113050000Y-77100000D03*
%TO.P,J2,57,GND*%
%TO.N,GND*%
X105600000Y-76850000D03*
%TO.P,J2,58,NC*%
%TO.N,unconnected-(J2-Pad58)*%
X113050000Y-76600000D03*
%TO.P,J2,59*%
%TO.N,N/C*%
X105600000Y-76350000D03*
%TO.P,J2,60*%
X113050000Y-76100000D03*
%TO.P,J2,61*%
X105600000Y-75850000D03*
%TO.P,J2,62*%
X113050000Y-75600000D03*
%TO.P,J2,63*%
X105600000Y-75350000D03*
%TO.P,J2,64*%
X113050000Y-75100000D03*
%TO.P,J2,65*%
X105600000Y-74850000D03*
%TO.P,J2,66*%
X113050000Y-74600000D03*
%TO.P,J2,67,NC*%
%TO.N,unconnected-(J2-Pad67)*%
X105600000Y-74350000D03*
%TO.P,J2,68,SUSCLK*%
%TO.N,unconnected-(J2-Pad68)*%
X113050000Y-74100000D03*
%TO.P,J2,69,PEDET*%
%TO.N,unconnected-(J2-Pad69)*%
X105600000Y-73850000D03*
%TO.P,J2,70,3.3V*%
%TO.N,+3V3*%
X113050000Y-73600000D03*
%TO.P,J2,71,GND*%
%TO.N,GND*%
X105600000Y-73350000D03*
%TO.P,J2,72,3.3V*%
%TO.N,+3V3*%
X113050000Y-73100000D03*
%TO.P,J2,73,GND*%
%TO.N,GND*%
X105600000Y-72850000D03*
%TO.P,J2,74,3.3V*%
%TO.N,+3V3*%
X113050000Y-72600000D03*
%TO.P,J2,75,GND*%
%TO.N,GND*%
X105600000Y-72350000D03*
D19*
%TO.P,J2,MP*%
%TO.N,N/C*%
X106325000Y-91950000D03*
X106325000Y-71250000D03*
%TD*%
D12*
%TO.P,R1,1*%
%TO.N,+3V3*%
X120310000Y-81100000D03*
%TO.P,R1,2*%
%TO.N,/~{PERST}*%
X119290000Y-81100000D03*
%TD*%
D20*
%TO.N,Net-(J1-Pad22)*%
X117900000Y-81800000D03*
%TO.N,/~{CLKREQ}*%
X118500000Y-78100000D03*
%TO.N,/~{PEWAKE}*%
X118500000Y-77100000D03*
%TO.N,+3V3*%
X120900000Y-81100000D03*
%TO.N,GND*%
X120900000Y-80100000D03*
X120900000Y-79100000D03*
%TO.N,+3V3*%
X120900000Y-78100000D03*
X120900000Y-77100000D03*
D21*
%TO.N,GND*%
X114491297Y-91700000D03*
X114491297Y-85200000D03*
X118500000Y-91100000D03*
X118900000Y-88900000D03*
X119400000Y-90000000D03*
X118100000Y-88200000D03*
X119400000Y-87100000D03*
X118500000Y-86000000D03*
X118500000Y-74200000D03*
X119400000Y-73100000D03*
X118500000Y-72000000D03*
X114500000Y-71000000D03*
X114500000Y-75000000D03*
D20*
X106875000Y-78350000D03*
X106875000Y-79875000D03*
D21*
%TO.N,+3V3*%
X103525000Y-99800000D03*
X114325000Y-87600000D03*
X111725000Y-88600000D03*
X114325000Y-90600000D03*
X114325000Y-89600000D03*
X111725000Y-90600000D03*
X123125000Y-99400000D03*
X111725000Y-89600000D03*
X114325000Y-73850000D03*
X116175000Y-99050000D03*
X120725000Y-99400000D03*
X114325000Y-72850000D03*
X126725000Y-99400000D03*
X111725000Y-72850000D03*
X111725000Y-87600000D03*
X111725000Y-86600000D03*
X111725000Y-73850000D03*
X114325000Y-88600000D03*
X114325000Y-86600000D03*
%TO.N,GND*%
X106875000Y-90100000D03*
D22*
X123125000Y-100300000D03*
D21*
X121925000Y-99400000D03*
D22*
X106325000Y-100300000D03*
X104125000Y-78350000D03*
X113125000Y-100300000D03*
X116325000Y-100300000D03*
X119925000Y-100300000D03*
X116925000Y-99750000D03*
X104125000Y-79850000D03*
D21*
X104275000Y-90100000D03*
X106875000Y-85850000D03*
X106875000Y-81450000D03*
D22*
X125925000Y-100300000D03*
D21*
X104275000Y-72600000D03*
D22*
X119725000Y-99650000D03*
D21*
X106875000Y-84350000D03*
X106875000Y-72600000D03*
X104275000Y-73600000D03*
D22*
X104325000Y-100300000D03*
D21*
X106875000Y-87350000D03*
D22*
X117525000Y-100300000D03*
X104125000Y-76850000D03*
X108725000Y-100300000D03*
X114325000Y-100300000D03*
D21*
X106875000Y-82850000D03*
X106875000Y-73600000D03*
X106875000Y-76850000D03*
D22*
X120725000Y-100300000D03*
D21*
X106875000Y-88850000D03*
D22*
%TO.N,/~{PEWAKE}*%
X102525000Y-99800000D03*
%TO.N,/~{CLKREQ}*%
X105525000Y-99800000D03*
%TD*%
D23*
%TO.N,/PET0-*%
X115633406Y-96669534D02*
X115633407Y-96669535D01*
X118325000Y-100067499D02*
X118505000Y-99887499D01*
X118505000Y-99541128D02*
X116481936Y-97518064D01*
X115633405Y-96669535D02*
G75*
G02*
X115633405Y-97093797I-212131J-212131D01*
G01*
X116057670Y-97518063D02*
X116042092Y-97533642D01*
X108980000Y-79891128D02*
X108408872Y-79320000D01*
X118505000Y-99887499D02*
X118505000Y-99541128D01*
X108408872Y-79320000D02*
X106792501Y-79320000D01*
X115617827Y-97109377D02*
G75*
G03*
X115617828Y-97533642I212128J-212132D01*
G01*
X106762501Y-79350000D02*
X105600000Y-79350000D01*
X115617827Y-97109376D02*
X115633406Y-97093798D01*
X115617827Y-97109377D02*
X115617827Y-97109376D01*
X116057671Y-97518063D02*
G75*
G02*
X116481936Y-97518064I212132J-212128D01*
G01*
X118325000Y-101815000D02*
X118325000Y-100067499D01*
X114483872Y-95520000D02*
X110533872Y-95520000D01*
X115617829Y-97533641D02*
G75*
G03*
X116042091Y-97533641I212131J212131D01*
G01*
X116057671Y-97518063D02*
X116057670Y-97518063D01*
X115633407Y-96669535D02*
X114483872Y-95520000D01*
X110533872Y-95520000D02*
X108980000Y-93966128D01*
X106792501Y-79320000D02*
X106762501Y-79350000D01*
X108980000Y-93966128D02*
X108980000Y-79891128D01*
%TO.N,/PET0+*%
X118945000Y-99358872D02*
X114666128Y-95080000D01*
%TO.N,/PER0+*%
X102945000Y-83495000D02*
X102945000Y-92058872D01*
X115745000Y-100770000D02*
X115925000Y-100950000D01*
X102945000Y-83445000D02*
X102945000Y-83495000D01*
X102945000Y-81866128D02*
X102945000Y-82245000D01*
X103245000Y-82545000D02*
X103267033Y-82545000D01*
X103267033Y-83145000D02*
X103245000Y-83145000D01*
X104407499Y-80820000D02*
X103991128Y-80820000D01*
X103991128Y-80820000D02*
X102945000Y-81866128D01*
X112616128Y-97080000D02*
X115745000Y-100208872D01*
X104437499Y-80850000D02*
X104407499Y-80820000D01*
X107966128Y-97080000D02*
X112616128Y-97080000D01*
X105600000Y-80850000D02*
X104437499Y-80850000D01*
X103567033Y-82845000D02*
G75*
G03*
X103267033Y-82545000I-300000J0D01*
G01*
X115745000Y-100208872D02*
X115745000Y-100770000D01*
X102945000Y-83445000D02*
G75*
G02*
X103245000Y-83145000I300000J0D01*
G01*
X103245000Y-82545000D02*
G75*
G02*
X102945000Y-82245000I0J300000D01*
G01*
X103267033Y-83145000D02*
G75*
G03*
X103567033Y-82845000I0J300000D01*
G01*
X102945000Y-92058872D02*
X107966128Y-97080000D01*
X115925000Y-100950000D02*
X115925000Y-101815000D01*
D24*
%TO.N,Net-(J2-Pad52)*%
X113050000Y-78100000D02*
X116790000Y-78100000D01*
%TO.N,Net-(J1-Pad22)*%
X117900000Y-81800000D02*
X117900000Y-81110000D01*
%TO.N,/~{PERST}*%
X118610000Y-80090000D02*
X119310000Y-80090000D01*
X113050000Y-78600000D02*
X115375000Y-78600000D01*
X115375000Y-78600000D02*
X116865000Y-80090000D01*
X116865000Y-80090000D02*
X117900000Y-80090000D01*
X117900000Y-80090000D02*
X118610000Y-80090000D01*
X119310000Y-80090000D02*
X119320000Y-80100000D01*
X119320000Y-80100000D02*
X119320000Y-81070000D01*
X119320000Y-81070000D02*
X119290000Y-81100000D01*
%TO.N,/~{CLKREQ}*%
X119285000Y-78100000D02*
X119285000Y-79095000D01*
X119285000Y-79095000D02*
X119290000Y-79100000D01*
X119285000Y-78100000D02*
X118500000Y-78100000D01*
X117810000Y-78100000D02*
X118500000Y-78100000D01*
%TO.N,/~{PEWAKE}*%
X119290000Y-77100000D02*
X118500000Y-77100000D01*
X117810000Y-77100000D02*
X118500000Y-77100000D01*
D25*
%TO.N,+3V3*%
X120310000Y-81100000D02*
X120900000Y-81100000D01*
%TO.N,GND*%
X120280000Y-80100000D02*
X120900000Y-80100000D01*
X120310000Y-79100000D02*
X120900000Y-79100000D01*
%TO.N,+3V3*%
X120305000Y-78100000D02*
X120900000Y-78100000D01*
X120310000Y-77100000D02*
X120900000Y-77100000D01*
D26*
%TO.N,GND*%
X114491297Y-91700000D02*
X115280000Y-91700000D01*
X115280000Y-91700000D02*
X115300000Y-91680000D01*
X114491297Y-85200000D02*
X115280000Y-85200000D01*
X115280000Y-85200000D02*
X115300000Y-85220000D01*
X114500000Y-75000000D02*
X115280000Y-75000000D01*
X115280000Y-75000000D02*
X115300000Y-74980000D01*
X115300000Y-71020000D02*
X114520000Y-71020000D01*
X114520000Y-71020000D02*
X114500000Y-71000000D01*
D27*
X118500000Y-72000000D02*
X118500000Y-73100000D01*
X119400000Y-73100000D02*
X118500000Y-73100000D01*
X118500000Y-73100000D02*
X118500000Y-74200000D01*
X118500000Y-90000000D02*
X118500000Y-89300000D01*
X118500000Y-89300000D02*
X118900000Y-88900000D01*
X118500000Y-91100000D02*
X118500000Y-90000000D01*
X119400000Y-90000000D02*
X118500000Y-90000000D01*
X118500000Y-86000000D02*
X118500000Y-87050000D01*
X118500000Y-87050000D02*
X118450000Y-87100000D01*
X118450000Y-87100000D02*
X119400000Y-87100000D01*
X118450000Y-87100000D02*
X118450000Y-87850000D01*
X118450000Y-87850000D02*
X118100000Y-88200000D01*
D25*
X105600000Y-78350000D02*
X106875000Y-78350000D01*
X106875000Y-79875000D02*
X106850000Y-79850000D01*
X106850000Y-79850000D02*
X105600000Y-79850000D01*
D23*
%TO.N,/PER0-*%
X103808872Y-80380000D02*
X104407499Y-80380000D01*
X104437499Y-80350000D02*
X105600000Y-80350000D01*
X102505000Y-81683872D02*
X103808872Y-80380000D01*
X104407499Y-80380000D02*
X104437499Y-80350000D01*
X102505000Y-92241128D02*
X102505000Y-81683872D01*
%TO.N,/PET0+*%
X108591128Y-78880000D02*
X106792501Y-78880000D01*
X106792501Y-78880000D02*
X106762501Y-78850000D01*
X106762501Y-78850000D02*
X105600000Y-78850000D01*
X109420000Y-79708872D02*
X108591128Y-78880000D01*
X110716128Y-95080000D02*
X109420000Y-93783872D01*
X109420000Y-93783872D02*
X109420000Y-79708872D01*
X118945000Y-99887499D02*
X118945000Y-99358872D01*
X114666128Y-95080000D02*
X110716128Y-95080000D01*
X119125000Y-100067499D02*
X118945000Y-99887499D01*
X119125000Y-101815000D02*
X119125000Y-100067499D01*
D26*
%TO.N,+3V3*%
X121525000Y-100200000D02*
X120725000Y-99400000D01*
X122325000Y-100200000D02*
X123125000Y-99400000D01*
X122325000Y-101815000D02*
X122325000Y-100200000D01*
X121525000Y-101815000D02*
X121525000Y-100200000D01*
D25*
%TO.N,GND*%
X105600000Y-88850000D02*
X106875000Y-88850000D01*
X119925000Y-100300000D02*
X119925000Y-101815000D01*
X105600000Y-84350000D02*
X106875000Y-84350000D01*
X105600000Y-82850000D02*
X106875000Y-82850000D01*
X105600000Y-78350000D02*
X104125000Y-78350000D01*
X120725000Y-100300000D02*
X120725000Y-101815000D01*
X116725000Y-101815000D02*
X116725000Y-100600000D01*
X116925000Y-100400000D02*
X116925000Y-99750000D01*
X106775000Y-81350000D02*
X106875000Y-81450000D01*
X116725000Y-100600000D02*
X116925000Y-100400000D01*
X105600000Y-81350000D02*
X106775000Y-81350000D01*
X105600000Y-76850000D02*
X104125000Y-76850000D01*
X105600000Y-79850000D02*
X104125000Y-79850000D01*
X106325000Y-100300000D02*
X106325000Y-101815000D01*
X114325000Y-100300000D02*
X114325000Y-101815000D01*
X108725000Y-100300000D02*
X108725000Y-101815000D01*
X105600000Y-87350000D02*
X106875000Y-87350000D01*
X117525000Y-100300000D02*
X117525000Y-101815000D01*
X123125000Y-100300000D02*
X123125000Y-101815000D01*
X105600000Y-76850000D02*
X106875000Y-76850000D01*
X105600000Y-85850000D02*
X106875000Y-85850000D01*
D23*
%TO.N,/PER0-*%
X112433872Y-97520000D02*
X107783872Y-97520000D01*
X115305000Y-100391128D02*
X112433872Y-97520000D01*
X107783872Y-97520000D02*
X102505000Y-92241128D01*
X115125000Y-100950000D02*
X115305000Y-100770000D01*
X115125000Y-101815000D02*
X115125000Y-100950000D01*
X115305000Y-100770000D02*
X115305000Y-100391128D01*
D24*
%TO.N,Net-(J2-Pad54)*%
X113050000Y-77600000D02*
X115375000Y-77600000D01*
X115875000Y-77100000D02*
X116875000Y-77100000D01*
X115375000Y-77600000D02*
X115875000Y-77100000D01*
%TO.N,/~{PEWAKE}*%
X103125000Y-101815000D02*
X103125000Y-100400000D01*
X103125000Y-100400000D02*
X102525000Y-99800000D01*
D23*
%TO.N,/REFCLK+*%
X107745000Y-100770000D02*
X107925000Y-100950000D01*
X107925000Y-100950000D02*
X107925000Y-101815000D01*
X107379092Y-99642964D02*
X107745000Y-100008872D01*
X101345000Y-79091128D02*
X101345000Y-93608872D01*
X101345000Y-93608872D02*
X106530564Y-98794436D01*
X104407499Y-77820000D02*
X102616128Y-77820000D01*
X106954828Y-98794436D02*
X106970407Y-98778858D01*
X106954829Y-98794435D02*
X106954828Y-98794436D01*
X107745000Y-100008872D02*
X107745000Y-100770000D01*
X105600000Y-77850000D02*
X104437499Y-77850000D01*
X102616128Y-77820000D02*
X101345000Y-79091128D01*
X107394671Y-99203122D02*
X107379091Y-99218699D01*
X107379091Y-99642963D02*
X107379092Y-99642964D01*
X104437499Y-77850000D02*
X104407499Y-77820000D01*
X107394670Y-99203123D02*
X107394671Y-99203122D01*
X107394670Y-99203123D02*
G75*
G03*
X107394671Y-98778858I-212134J212133D01*
G01*
X107379092Y-99642962D02*
G75*
G02*
X107379092Y-99218700I212131J212131D01*
G01*
X107394670Y-98778859D02*
G75*
G03*
X106970408Y-98778859I-212131J-212131D01*
G01*
X106954829Y-98794435D02*
G75*
G02*
X106530564Y-98794436I-212133J212127D01*
G01*
%TO.N,/REFCLK-*%
X102433872Y-77380000D02*
X104407499Y-77380000D01*
X107305000Y-100191128D02*
X100905000Y-93791128D01*
X104437499Y-77350000D02*
X105600000Y-77350000D01*
X107125000Y-101815000D02*
X107125000Y-100950000D01*
X104407499Y-77380000D02*
X104437499Y-77350000D01*
X100905000Y-93791128D02*
X100905000Y-78908872D01*
X107125000Y-100950000D02*
X107305000Y-100770000D01*
X100905000Y-78908872D02*
X102433872Y-77380000D01*
X107305000Y-100770000D02*
X107305000Y-100191128D01*
D24*
%TO.N,/~{CLKREQ}*%
X105525000Y-101815000D02*
X105525000Y-99800000D01*
%TD*%
%TA.AperFunction,Conductor*%
%TO.N,+3V3*%
G36*
X117110648Y-71614352D02*
G01*
X117125000Y-71649000D01*
X117125000Y-74301000D01*
X117110648Y-74335648D01*
X117076000Y-74350000D01*
X113966805Y-74350000D01*
X113932157Y-74335648D01*
X113917805Y-74301000D01*
X113920130Y-74289305D01*
X113919669Y-74289213D01*
X113925029Y-74262265D01*
X113925500Y-74259899D01*
X113925499Y-73949577D01*
X113939851Y-73914930D01*
X113947276Y-73908836D01*
X113965181Y-73896872D01*
X113971872Y-73890181D01*
X114010715Y-73832049D01*
X114014337Y-73823303D01*
X114024532Y-73772052D01*
X114025000Y-73767295D01*
X114025000Y-73759747D01*
X114022145Y-73752855D01*
X114015253Y-73750000D01*
X112084747Y-73750000D01*
X112077855Y-73752855D01*
X112075000Y-73759747D01*
X112075000Y-73767295D01*
X112075468Y-73772052D01*
X112085663Y-73823303D01*
X112089285Y-73832049D01*
X112128128Y-73890181D01*
X112134819Y-73896872D01*
X112152723Y-73908835D01*
X112173558Y-73940017D01*
X112174500Y-73949577D01*
X112174501Y-74259898D01*
X112174970Y-74262255D01*
X112180331Y-74289213D01*
X112178466Y-74289584D01*
X112178463Y-74319756D01*
X112151942Y-74346272D01*
X112133195Y-74350000D01*
X111374000Y-74350000D01*
X111339352Y-74335648D01*
X111325000Y-74301000D01*
X111325000Y-73440253D01*
X112075000Y-73440253D01*
X112077855Y-73447145D01*
X112084747Y-73450000D01*
X112890253Y-73450000D01*
X112897145Y-73447145D01*
X112900000Y-73440253D01*
X113200000Y-73440253D01*
X113202855Y-73447145D01*
X113209747Y-73450000D01*
X114015253Y-73450000D01*
X114022145Y-73447145D01*
X114025000Y-73440253D01*
X114025000Y-73432705D01*
X114024532Y-73427948D01*
X114014337Y-73376697D01*
X114011047Y-73368754D01*
X114011047Y-73331246D01*
X114014337Y-73323303D01*
X114024532Y-73272052D01*
X114025000Y-73267295D01*
X114025000Y-73259747D01*
X114022145Y-73252855D01*
X114015253Y-73250000D01*
X113209747Y-73250000D01*
X113202855Y-73252855D01*
X113200000Y-73259747D01*
X113200000Y-73440253D01*
X112900000Y-73440253D01*
X112900000Y-73259747D01*
X112897145Y-73252855D01*
X112890253Y-73250000D01*
X112084747Y-73250000D01*
X112077855Y-73252855D01*
X112075000Y-73259747D01*
X112075000Y-73267295D01*
X112075468Y-73272052D01*
X112085663Y-73323303D01*
X112088953Y-73331246D01*
X112088953Y-73368754D01*
X112085663Y-73376697D01*
X112075468Y-73427948D01*
X112075000Y-73432705D01*
X112075000Y-73440253D01*
X111325000Y-73440253D01*
X111325000Y-72940253D01*
X112075000Y-72940253D01*
X112077855Y-72947145D01*
X112084747Y-72950000D01*
X112890253Y-72950000D01*
X112897145Y-72947145D01*
X112900000Y-72940253D01*
X113200000Y-72940253D01*
X113202855Y-72947145D01*
X113209747Y-72950000D01*
X114015253Y-72950000D01*
X114022145Y-72947145D01*
X114025000Y-72940253D01*
X114025000Y-72932705D01*
X114024532Y-72927948D01*
X114014337Y-72876697D01*
X114011047Y-72868754D01*
X114011047Y-72831246D01*
X114014337Y-72823303D01*
X114024532Y-72772052D01*
X114025000Y-72767295D01*
X114025000Y-72759747D01*
X114022145Y-72752855D01*
X114015253Y-72750000D01*
X113209747Y-72750000D01*
X113202855Y-72752855D01*
X113200000Y-72759747D01*
X113200000Y-72940253D01*
X112900000Y-72940253D01*
X112900000Y-72759747D01*
X112897145Y-72752855D01*
X112890253Y-72750000D01*
X112084747Y-72750000D01*
X112077855Y-72752855D01*
X112075000Y-72759747D01*
X112075000Y-72767295D01*
X112075468Y-72772052D01*
X112085663Y-72823303D01*
X112088953Y-72831246D01*
X112088953Y-72868754D01*
X112085663Y-72876697D01*
X112075468Y-72927948D01*
X112075000Y-72932705D01*
X112075000Y-72940253D01*
X111325000Y-72940253D01*
X111325000Y-72553404D01*
X111339352Y-72518756D01*
X111350996Y-72510139D01*
X111407038Y-72480342D01*
X111407042Y-72480339D01*
X111409151Y-72479218D01*
X111456927Y-72440253D01*
X112075000Y-72440253D01*
X112077855Y-72447145D01*
X112084747Y-72450000D01*
X112890253Y-72450000D01*
X112897145Y-72447145D01*
X112900000Y-72440253D01*
X113200000Y-72440253D01*
X113202855Y-72447145D01*
X113209747Y-72450000D01*
X114015253Y-72450000D01*
X114022145Y-72447145D01*
X114025000Y-72440253D01*
X114025000Y-72432705D01*
X114024532Y-72427948D01*
X114014337Y-72376697D01*
X114010715Y-72367951D01*
X113971872Y-72309819D01*
X113965181Y-72303128D01*
X113907049Y-72264285D01*
X113898303Y-72260663D01*
X113847052Y-72250468D01*
X113842295Y-72250000D01*
X113209747Y-72250000D01*
X113202855Y-72252855D01*
X113200000Y-72259747D01*
X113200000Y-72440253D01*
X112900000Y-72440253D01*
X112900000Y-72259747D01*
X112897145Y-72252855D01*
X112890253Y-72250000D01*
X112257705Y-72250000D01*
X112252948Y-72250468D01*
X112201697Y-72260663D01*
X112192951Y-72264285D01*
X112134819Y-72303128D01*
X112128128Y-72309819D01*
X112089285Y-72367951D01*
X112085663Y-72376697D01*
X112075468Y-72427948D01*
X112075000Y-72432705D01*
X112075000Y-72440253D01*
X111456927Y-72440253D01*
X111568800Y-72349011D01*
X111700118Y-72190275D01*
X111798103Y-72009055D01*
X111859023Y-71812254D01*
X111859273Y-71809877D01*
X111876720Y-71643878D01*
X111894615Y-71610920D01*
X111925452Y-71600000D01*
X117076000Y-71600000D01*
X117110648Y-71614352D01*
G37*
%TD.AperFunction*%
%TD*%
%TA.AperFunction,Conductor*%
%TO.N,GND*%
G36*
X104717843Y-89614352D02*
G01*
X104732195Y-89649000D01*
X104729870Y-89660695D01*
X104730331Y-89660787D01*
X104724500Y-89690101D01*
X104724500Y-89692511D01*
X104724501Y-90000422D01*
X104710149Y-90035070D01*
X104702724Y-90041164D01*
X104684819Y-90053128D01*
X104678128Y-90059819D01*
X104639285Y-90117951D01*
X104635663Y-90126697D01*
X104625468Y-90177948D01*
X104625000Y-90182705D01*
X104625000Y-90190253D01*
X104627855Y-90197145D01*
X104634747Y-90200000D01*
X106565253Y-90200000D01*
X106572145Y-90197145D01*
X106575000Y-90190253D01*
X106575000Y-90182705D01*
X106574532Y-90177948D01*
X106564337Y-90126697D01*
X106560715Y-90117951D01*
X106521872Y-90059819D01*
X106515181Y-90053128D01*
X106497277Y-90041165D01*
X106476442Y-90009983D01*
X106475500Y-90000423D01*
X106475499Y-89692506D01*
X106475499Y-89690102D01*
X106469669Y-89660787D01*
X106471534Y-89660416D01*
X106471537Y-89630244D01*
X106498058Y-89603728D01*
X106516805Y-89600000D01*
X107276000Y-89600000D01*
X107310648Y-89614352D01*
X107325000Y-89649000D01*
X107325000Y-90951000D01*
X107310648Y-90985648D01*
X107276000Y-91000000D01*
X103774000Y-91000000D01*
X103739352Y-90985648D01*
X103725000Y-90951000D01*
X103725000Y-90690253D01*
X104625000Y-90690253D01*
X104627855Y-90697145D01*
X104634747Y-90700000D01*
X105440253Y-90700000D01*
X105447145Y-90697145D01*
X105450000Y-90690253D01*
X105750000Y-90690253D01*
X105752855Y-90697145D01*
X105759747Y-90700000D01*
X106565253Y-90700000D01*
X106572145Y-90697145D01*
X106575000Y-90690253D01*
X106575000Y-90682705D01*
X106574532Y-90677948D01*
X106564337Y-90626697D01*
X106561047Y-90618754D01*
X106561047Y-90581246D01*
X106564337Y-90573303D01*
X106574532Y-90522052D01*
X106575000Y-90517295D01*
X106575000Y-90509747D01*
X106572145Y-90502855D01*
X106565253Y-90500000D01*
X105759747Y-90500000D01*
X105752855Y-90502855D01*
X105750000Y-90509747D01*
X105750000Y-90690253D01*
X105450000Y-90690253D01*
X105450000Y-90509747D01*
X105447145Y-90502855D01*
X105440253Y-90500000D01*
X104634747Y-90500000D01*
X104627855Y-90502855D01*
X104625000Y-90509747D01*
X104625000Y-90517295D01*
X104625468Y-90522052D01*
X104635663Y-90573303D01*
X104638953Y-90581246D01*
X104638953Y-90618754D01*
X104635663Y-90626697D01*
X104625468Y-90677948D01*
X104625000Y-90682705D01*
X104625000Y-90690253D01*
X103725000Y-90690253D01*
X103725000Y-89649000D01*
X103739352Y-89614352D01*
X103774000Y-89600000D01*
X104683195Y-89600000D01*
X104717843Y-89614352D01*
G37*
%TD.AperFunction*%
%TD*%
%TA.AperFunction,Conductor*%
%TO.N,GND*%
G36*
X104615914Y-72114352D02*
G01*
X104630266Y-72149000D01*
X104629324Y-72158560D01*
X104625469Y-72177940D01*
X104625000Y-72182705D01*
X104625000Y-72190253D01*
X104627855Y-72197145D01*
X104634747Y-72200000D01*
X106565253Y-72200000D01*
X106572145Y-72197145D01*
X106575000Y-72190253D01*
X106575000Y-72182705D01*
X106574531Y-72177940D01*
X106570676Y-72158560D01*
X106577992Y-72121777D01*
X106609174Y-72100942D01*
X106618734Y-72100000D01*
X107276000Y-72100000D01*
X107310648Y-72114352D01*
X107325000Y-72149000D01*
X107325000Y-74051000D01*
X107310648Y-74085648D01*
X107276000Y-74100000D01*
X106516805Y-74100000D01*
X106482157Y-74085648D01*
X106467805Y-74051000D01*
X106470130Y-74039305D01*
X106469669Y-74039213D01*
X106475029Y-74012265D01*
X106475500Y-74009899D01*
X106475499Y-73699577D01*
X106489851Y-73664930D01*
X106497276Y-73658836D01*
X106515181Y-73646872D01*
X106521872Y-73640181D01*
X106560715Y-73582049D01*
X106564337Y-73573303D01*
X106574532Y-73522052D01*
X106575000Y-73517295D01*
X106575000Y-73509747D01*
X106572145Y-73502855D01*
X106565253Y-73500000D01*
X104634747Y-73500000D01*
X104627855Y-73502855D01*
X104625000Y-73509747D01*
X104625000Y-73517295D01*
X104625468Y-73522052D01*
X104635663Y-73573303D01*
X104639285Y-73582049D01*
X104678128Y-73640181D01*
X104684819Y-73646872D01*
X104702723Y-73658835D01*
X104723558Y-73690017D01*
X104724500Y-73699577D01*
X104724501Y-74009898D01*
X104724970Y-74012255D01*
X104730331Y-74039213D01*
X104728466Y-74039584D01*
X104728463Y-74069756D01*
X104701942Y-74096272D01*
X104683195Y-74100000D01*
X103774000Y-74100000D01*
X103739352Y-74085648D01*
X103725000Y-74051000D01*
X103725000Y-73190253D01*
X104625000Y-73190253D01*
X104627855Y-73197145D01*
X104634747Y-73200000D01*
X105440253Y-73200000D01*
X105447145Y-73197145D01*
X105450000Y-73190253D01*
X105750000Y-73190253D01*
X105752855Y-73197145D01*
X105759747Y-73200000D01*
X106565253Y-73200000D01*
X106572145Y-73197145D01*
X106575000Y-73190253D01*
X106575000Y-73182705D01*
X106574532Y-73177948D01*
X106564337Y-73126697D01*
X106561047Y-73118754D01*
X106561047Y-73081246D01*
X106564337Y-73073303D01*
X106574532Y-73022052D01*
X106575000Y-73017295D01*
X106575000Y-73009747D01*
X106572145Y-73002855D01*
X106565253Y-73000000D01*
X105759747Y-73000000D01*
X105752855Y-73002855D01*
X105750000Y-73009747D01*
X105750000Y-73190253D01*
X105450000Y-73190253D01*
X105450000Y-73009747D01*
X105447145Y-73002855D01*
X105440253Y-73000000D01*
X104634747Y-73000000D01*
X104627855Y-73002855D01*
X104625000Y-73009747D01*
X104625000Y-73017295D01*
X104625468Y-73022052D01*
X104635663Y-73073303D01*
X104638953Y-73081246D01*
X104638953Y-73118754D01*
X104635663Y-73126697D01*
X104625468Y-73177948D01*
X104625000Y-73182705D01*
X104625000Y-73190253D01*
X103725000Y-73190253D01*
X103725000Y-72690253D01*
X104625000Y-72690253D01*
X104627855Y-72697145D01*
X104634747Y-72700000D01*
X105440253Y-72700000D01*
X105447145Y-72697145D01*
X105450000Y-72690253D01*
X105750000Y-72690253D01*
X105752855Y-72697145D01*
X105759747Y-72700000D01*
X106565253Y-72700000D01*
X106572145Y-72697145D01*
X106575000Y-72690253D01*
X106575000Y-72682705D01*
X106574532Y-72677948D01*
X106564337Y-72626697D01*
X106561047Y-72618754D01*
X106561047Y-72581246D01*
X106564337Y-72573303D01*
X106574532Y-72522052D01*
X106575000Y-72517295D01*
X106575000Y-72509747D01*
X106572145Y-72502855D01*
X106565253Y-72500000D01*
X105759747Y-72500000D01*
X105752855Y-72502855D01*
X105750000Y-72509747D01*
X105750000Y-72690253D01*
X105450000Y-72690253D01*
X105450000Y-72509747D01*
X105447145Y-72502855D01*
X105440253Y-72500000D01*
X104634747Y-72500000D01*
X104627855Y-72502855D01*
X104625000Y-72509747D01*
X104625000Y-72517295D01*
X104625468Y-72522052D01*
X104635663Y-72573303D01*
X104638953Y-72581246D01*
X104638953Y-72618754D01*
X104635663Y-72626697D01*
X104625468Y-72677948D01*
X104625000Y-72682705D01*
X104625000Y-72690253D01*
X103725000Y-72690253D01*
X103725000Y-72149000D01*
X103739352Y-72114352D01*
X103774000Y-72100000D01*
X104581266Y-72100000D01*
X104615914Y-72114352D01*
G37*
%TD.AperFunction*%
%TD*%
%TA.AperFunction,Conductor*%
%TO.N,+3V3*%
G36*
X112167843Y-85864352D02*
G01*
X112182195Y-85899000D01*
X112179870Y-85910695D01*
X112180331Y-85910787D01*
X112174500Y-85940101D01*
X112174500Y-85942511D01*
X112174501Y-86250422D01*
X112160149Y-86285070D01*
X112152724Y-86291164D01*
X112134819Y-86303128D01*
X112128128Y-86309819D01*
X112089285Y-86367951D01*
X112085663Y-86376697D01*
X112075468Y-86427948D01*
X112075000Y-86432705D01*
X112075000Y-86440253D01*
X112077855Y-86447145D01*
X112084747Y-86450000D01*
X114015253Y-86450000D01*
X114022145Y-86447145D01*
X114025000Y-86440253D01*
X114025000Y-86432705D01*
X114024532Y-86427948D01*
X114014337Y-86376697D01*
X114010715Y-86367951D01*
X113971872Y-86309819D01*
X113965181Y-86303128D01*
X113947277Y-86291165D01*
X113926442Y-86259983D01*
X113925500Y-86250423D01*
X113925499Y-85942506D01*
X113925499Y-85940102D01*
X113919669Y-85910787D01*
X113921534Y-85910416D01*
X113921537Y-85880244D01*
X113948058Y-85853728D01*
X113966805Y-85850000D01*
X117076000Y-85850000D01*
X117110648Y-85864352D01*
X117125000Y-85899000D01*
X117125000Y-91001000D01*
X117110648Y-91035648D01*
X117076000Y-91050000D01*
X111427466Y-91050000D01*
X111392457Y-91035283D01*
X111338991Y-90980685D01*
X111325000Y-90946402D01*
X111325000Y-90767295D01*
X112075000Y-90767295D01*
X112075468Y-90772052D01*
X112085663Y-90823303D01*
X112089285Y-90832049D01*
X112128128Y-90890181D01*
X112134819Y-90896872D01*
X112192951Y-90935715D01*
X112201697Y-90939337D01*
X112252948Y-90949532D01*
X112257705Y-90950000D01*
X112890253Y-90950000D01*
X112897145Y-90947145D01*
X112900000Y-90940253D01*
X113200000Y-90940253D01*
X113202855Y-90947145D01*
X113209747Y-90950000D01*
X113842295Y-90950000D01*
X113847052Y-90949532D01*
X113898303Y-90939337D01*
X113907049Y-90935715D01*
X113965181Y-90896872D01*
X113971872Y-90890181D01*
X114010715Y-90832049D01*
X114014337Y-90823303D01*
X114024532Y-90772052D01*
X114025000Y-90767295D01*
X114025000Y-90759747D01*
X114022145Y-90752855D01*
X114015253Y-90750000D01*
X113209747Y-90750000D01*
X113202855Y-90752855D01*
X113200000Y-90759747D01*
X113200000Y-90940253D01*
X112900000Y-90940253D01*
X112900000Y-90759747D01*
X112897145Y-90752855D01*
X112890253Y-90750000D01*
X112084747Y-90750000D01*
X112077855Y-90752855D01*
X112075000Y-90759747D01*
X112075000Y-90767295D01*
X111325000Y-90767295D01*
X111325000Y-90440253D01*
X112075000Y-90440253D01*
X112077855Y-90447145D01*
X112084747Y-90450000D01*
X112890253Y-90450000D01*
X112897145Y-90447145D01*
X112900000Y-90440253D01*
X113200000Y-90440253D01*
X113202855Y-90447145D01*
X113209747Y-90450000D01*
X114015253Y-90450000D01*
X114022145Y-90447145D01*
X114025000Y-90440253D01*
X114025000Y-90432705D01*
X114024532Y-90427948D01*
X114014337Y-90376697D01*
X114011047Y-90368754D01*
X114011047Y-90331246D01*
X114014337Y-90323303D01*
X114024532Y-90272052D01*
X114025000Y-90267295D01*
X114025000Y-90259747D01*
X114022145Y-90252855D01*
X114015253Y-90250000D01*
X113209747Y-90250000D01*
X113202855Y-90252855D01*
X113200000Y-90259747D01*
X113200000Y-90440253D01*
X112900000Y-90440253D01*
X112900000Y-90259747D01*
X112897145Y-90252855D01*
X112890253Y-90250000D01*
X112084747Y-90250000D01*
X112077855Y-90252855D01*
X112075000Y-90259747D01*
X112075000Y-90267295D01*
X112075468Y-90272052D01*
X112085663Y-90323303D01*
X112088953Y-90331246D01*
X112088953Y-90368754D01*
X112085663Y-90376697D01*
X112075468Y-90427948D01*
X112075000Y-90432705D01*
X112075000Y-90440253D01*
X111325000Y-90440253D01*
X111325000Y-89940253D01*
X112075000Y-89940253D01*
X112077855Y-89947145D01*
X112084747Y-89950000D01*
X114015253Y-89950000D01*
X114022145Y-89947145D01*
X114025000Y-89940253D01*
X114025000Y-89932705D01*
X114024532Y-89927948D01*
X114014337Y-89876697D01*
X114010715Y-89867951D01*
X113971872Y-89809819D01*
X113965181Y-89803128D01*
X113947277Y-89791165D01*
X113926442Y-89759983D01*
X113925500Y-89750423D01*
X113925499Y-89442506D01*
X113925499Y-89440102D01*
X113919669Y-89410787D01*
X113897457Y-89377543D01*
X113899674Y-89376062D01*
X113888879Y-89350000D01*
X113899674Y-89323938D01*
X113897457Y-89322457D01*
X113916988Y-89293226D01*
X113916988Y-89293225D01*
X113919669Y-89289213D01*
X113925500Y-89259899D01*
X113925499Y-88940102D01*
X113919669Y-88910787D01*
X113897457Y-88877543D01*
X113899674Y-88876062D01*
X113888879Y-88850000D01*
X113899674Y-88823938D01*
X113897457Y-88822457D01*
X113916988Y-88793226D01*
X113916988Y-88793225D01*
X113919669Y-88789213D01*
X113925500Y-88759899D01*
X113925499Y-88449577D01*
X113939851Y-88414930D01*
X113947276Y-88408836D01*
X113965181Y-88396872D01*
X113971872Y-88390181D01*
X114010715Y-88332049D01*
X114014337Y-88323303D01*
X114024532Y-88272052D01*
X114025000Y-88267295D01*
X114025000Y-88259747D01*
X114022145Y-88252855D01*
X114015253Y-88250000D01*
X112084747Y-88250000D01*
X112077855Y-88252855D01*
X112075000Y-88259747D01*
X112075000Y-88267295D01*
X112075468Y-88272052D01*
X112085663Y-88323303D01*
X112089285Y-88332049D01*
X112128128Y-88390181D01*
X112134819Y-88396872D01*
X112152723Y-88408835D01*
X112173558Y-88440017D01*
X112174500Y-88449577D01*
X112174501Y-88759898D01*
X112180331Y-88789213D01*
X112183012Y-88793225D01*
X112183012Y-88793226D01*
X112202543Y-88822457D01*
X112200326Y-88823938D01*
X112211121Y-88850000D01*
X112200326Y-88876062D01*
X112202543Y-88877543D01*
X112180331Y-88910787D01*
X112174500Y-88940101D01*
X112174501Y-89259898D01*
X112180331Y-89289213D01*
X112183012Y-89293225D01*
X112183012Y-89293226D01*
X112202543Y-89322457D01*
X112200326Y-89323938D01*
X112211121Y-89350000D01*
X112200326Y-89376062D01*
X112202543Y-89377543D01*
X112180331Y-89410787D01*
X112174500Y-89440101D01*
X112174500Y-89442511D01*
X112174501Y-89750422D01*
X112160149Y-89785070D01*
X112152724Y-89791164D01*
X112134819Y-89803128D01*
X112128128Y-89809819D01*
X112089285Y-89867951D01*
X112085663Y-89876697D01*
X112075468Y-89927948D01*
X112075000Y-89932705D01*
X112075000Y-89940253D01*
X111325000Y-89940253D01*
X111325000Y-87940253D01*
X112075000Y-87940253D01*
X112077855Y-87947145D01*
X112084747Y-87950000D01*
X112890253Y-87950000D01*
X112897145Y-87947145D01*
X112900000Y-87940253D01*
X113200000Y-87940253D01*
X113202855Y-87947145D01*
X113209747Y-87950000D01*
X114015253Y-87950000D01*
X114022145Y-87947145D01*
X114025000Y-87940253D01*
X114025000Y-87932705D01*
X114024532Y-87927948D01*
X114014337Y-87876697D01*
X114011047Y-87868754D01*
X114011047Y-87831246D01*
X114014337Y-87823303D01*
X114024532Y-87772052D01*
X114025000Y-87767295D01*
X114025000Y-87759747D01*
X114022145Y-87752855D01*
X114015253Y-87750000D01*
X113209747Y-87750000D01*
X113202855Y-87752855D01*
X113200000Y-87759747D01*
X113200000Y-87940253D01*
X112900000Y-87940253D01*
X112900000Y-87759747D01*
X112897145Y-87752855D01*
X112890253Y-87750000D01*
X112084747Y-87750000D01*
X112077855Y-87752855D01*
X112075000Y-87759747D01*
X112075000Y-87767295D01*
X112075468Y-87772052D01*
X112085663Y-87823303D01*
X112088953Y-87831246D01*
X112088953Y-87868754D01*
X112085663Y-87876697D01*
X112075468Y-87927948D01*
X112075000Y-87932705D01*
X112075000Y-87940253D01*
X111325000Y-87940253D01*
X111325000Y-87440253D01*
X112075000Y-87440253D01*
X112077855Y-87447145D01*
X112084747Y-87450000D01*
X112890253Y-87450000D01*
X112897145Y-87447145D01*
X112900000Y-87440253D01*
X113200000Y-87440253D01*
X113202855Y-87447145D01*
X113209747Y-87450000D01*
X114015253Y-87450000D01*
X114022145Y-87447145D01*
X114025000Y-87440253D01*
X114025000Y-87432705D01*
X114024532Y-87427948D01*
X114014337Y-87376697D01*
X114011047Y-87368754D01*
X114011047Y-87331246D01*
X114014337Y-87323303D01*
X114024532Y-87272052D01*
X114025000Y-87267295D01*
X114025000Y-87259747D01*
X114022145Y-87252855D01*
X114015253Y-87250000D01*
X113209747Y-87250000D01*
X113202855Y-87252855D01*
X113200000Y-87259747D01*
X113200000Y-87440253D01*
X112900000Y-87440253D01*
X112900000Y-87259747D01*
X112897145Y-87252855D01*
X112890253Y-87250000D01*
X112084747Y-87250000D01*
X112077855Y-87252855D01*
X112075000Y-87259747D01*
X112075000Y-87267295D01*
X112075468Y-87272052D01*
X112085663Y-87323303D01*
X112088953Y-87331246D01*
X112088953Y-87368754D01*
X112085663Y-87376697D01*
X112075468Y-87427948D01*
X112075000Y-87432705D01*
X112075000Y-87440253D01*
X111325000Y-87440253D01*
X111325000Y-86940253D01*
X112075000Y-86940253D01*
X112077855Y-86947145D01*
X112084747Y-86950000D01*
X112890253Y-86950000D01*
X112897145Y-86947145D01*
X112900000Y-86940253D01*
X113200000Y-86940253D01*
X113202855Y-86947145D01*
X113209747Y-86950000D01*
X114015253Y-86950000D01*
X114022145Y-86947145D01*
X114025000Y-86940253D01*
X114025000Y-86932705D01*
X114024532Y-86927948D01*
X114014337Y-86876697D01*
X114011047Y-86868754D01*
X114011047Y-86831246D01*
X114014337Y-86823303D01*
X114024532Y-86772052D01*
X114025000Y-86767295D01*
X114025000Y-86759747D01*
X114022145Y-86752855D01*
X114015253Y-86750000D01*
X113209747Y-86750000D01*
X113202855Y-86752855D01*
X113200000Y-86759747D01*
X113200000Y-86940253D01*
X112900000Y-86940253D01*
X112900000Y-86759747D01*
X112897145Y-86752855D01*
X112890253Y-86750000D01*
X112084747Y-86750000D01*
X112077855Y-86752855D01*
X112075000Y-86759747D01*
X112075000Y-86767295D01*
X112075468Y-86772052D01*
X112085663Y-86823303D01*
X112088953Y-86831246D01*
X112088953Y-86868754D01*
X112085663Y-86876697D01*
X112075468Y-86927948D01*
X112075000Y-86932705D01*
X112075000Y-86940253D01*
X111325000Y-86940253D01*
X111325000Y-85899000D01*
X111339352Y-85864352D01*
X111374000Y-85850000D01*
X112133195Y-85850000D01*
X112167843Y-85864352D01*
G37*
%TD.AperFunction*%
%TD*%
M02*
