%TF.GenerationSoftware,KiCad,Pcbnew,(6.0.1)*%
%TF.CreationDate,2022-01-21T21:00:34+01:00*%
%TF.ProjectId,apu-m2,6170752d-6d32-42e6-9b69-6361645f7063,rev?*%
%TF.SameCoordinates,Original*%
%TF.FileFunction,Copper,L3,Inr*%
%TF.FilePolarity,Positive*%
%FSLAX46Y46*%
G04 Gerber Fmt 4.6, Leading zero omitted, Abs format (unit mm)*
G04 Created by KiCad (PCBNEW (6.0.1)) date 2022-01-21 21:00:34*
%MOMM*%
%LPD*%
G01*
G04 APERTURE LIST*
%TA.AperFunction,ComponentPad*%
%ADD10R,4.500000X4.500000*%
%TD*%
%TA.AperFunction,ViaPad*%
%ADD11C,0.450000*%
%TD*%
%TA.AperFunction,ViaPad*%
%ADD12C,0.650000*%
%TD*%
%TA.AperFunction,ViaPad*%
%ADD13C,0.460000*%
%TD*%
G04 APERTURE END LIST*
D10*
%TO.N,N/C*%
%TO.C,J1*%
X127025000Y-55150000D03*
X102825000Y-55150000D03*
%TD*%
D11*
%TO.N,Net-(J1-Pad22)*%
X117900000Y-81800000D03*
%TO.N,/~{CLKREQ}*%
X118500000Y-78100000D03*
%TO.N,/~{PEWAKE}*%
X118500000Y-77100000D03*
%TO.N,+3V3*%
X120900000Y-81100000D03*
%TO.N,GND*%
X120900000Y-80100000D03*
X120900000Y-79100000D03*
%TO.N,+3V3*%
X120900000Y-78100000D03*
X120900000Y-77100000D03*
D12*
%TO.N,GND*%
X114491297Y-91700000D03*
X114491297Y-85200000D03*
X118500000Y-91100000D03*
X118900000Y-88900000D03*
X119400000Y-90000000D03*
X118100000Y-88200000D03*
X119400000Y-87100000D03*
X118500000Y-86000000D03*
X118500000Y-74200000D03*
X119400000Y-73100000D03*
X118500000Y-72000000D03*
X114500000Y-71000000D03*
X114500000Y-75000000D03*
D11*
X106875000Y-78350000D03*
X106875000Y-79875000D03*
D12*
%TO.N,+3V3*%
X103525000Y-99800000D03*
X114325000Y-87600000D03*
X111725000Y-88600000D03*
X114325000Y-90600000D03*
X114325000Y-89600000D03*
X111725000Y-90600000D03*
X123125000Y-99400000D03*
X111725000Y-89600000D03*
X114325000Y-73850000D03*
X116175000Y-99050000D03*
X120725000Y-99400000D03*
X114325000Y-72850000D03*
X126725000Y-99400000D03*
X111725000Y-72850000D03*
X111725000Y-87600000D03*
X111725000Y-86600000D03*
X111725000Y-73850000D03*
X114325000Y-88600000D03*
X114325000Y-86600000D03*
%TO.N,GND*%
X106875000Y-90100000D03*
D13*
X123125000Y-100300000D03*
D12*
X121925000Y-99400000D03*
D13*
X106325000Y-100300000D03*
X104125000Y-78350000D03*
X113125000Y-100300000D03*
X116325000Y-100300000D03*
X119925000Y-100300000D03*
X116925000Y-99750000D03*
X104125000Y-79850000D03*
D12*
X104275000Y-90100000D03*
X106875000Y-85850000D03*
X106875000Y-81450000D03*
D13*
X125925000Y-100300000D03*
D12*
X104275000Y-72600000D03*
D13*
X119725000Y-99650000D03*
D12*
X106875000Y-84350000D03*
X106875000Y-72600000D03*
X104275000Y-73600000D03*
D13*
X104325000Y-100300000D03*
D12*
X106875000Y-87350000D03*
D13*
X117525000Y-100300000D03*
X104125000Y-76850000D03*
X108725000Y-100300000D03*
X114325000Y-100300000D03*
D12*
X106875000Y-82850000D03*
X106875000Y-73600000D03*
X106875000Y-76850000D03*
D13*
X120725000Y-100300000D03*
D12*
X106875000Y-88850000D03*
D13*
%TO.N,/~{PEWAKE}*%
X102525000Y-99800000D03*
%TO.N,/~{CLKREQ}*%
X105525000Y-99800000D03*
%TD*%
%TA.AperFunction,Conductor*%
%TO.N,+3V3*%
G36*
X129735648Y-52514352D02*
G01*
X129750000Y-52549000D01*
X129750000Y-99851000D01*
X129735648Y-99885648D01*
X129701000Y-99900000D01*
X128548600Y-99900000D01*
X128533459Y-99897602D01*
X128532381Y-99897252D01*
X128532380Y-99897252D01*
X128525000Y-99894854D01*
X128520438Y-99896336D01*
X128456954Y-99902589D01*
X128360763Y-99912063D01*
X128360759Y-99912064D01*
X128358371Y-99912299D01*
X128198145Y-99960902D01*
X128196026Y-99962034D01*
X128196025Y-99962035D01*
X128061784Y-100033789D01*
X128050480Y-100039831D01*
X127921051Y-100146051D01*
X127814831Y-100275480D01*
X127813697Y-100277601D01*
X127813696Y-100277603D01*
X127801725Y-100300000D01*
X127735902Y-100423145D01*
X127687299Y-100583371D01*
X127687064Y-100585759D01*
X127687063Y-100585763D01*
X127672045Y-100738240D01*
X127671336Y-100745438D01*
X127669854Y-100750000D01*
X127672252Y-100757380D01*
X127672252Y-100757381D01*
X127672602Y-100758459D01*
X127675000Y-100773600D01*
X127675000Y-103051000D01*
X127660648Y-103085648D01*
X127626000Y-103100000D01*
X111974000Y-103100000D01*
X111939352Y-103085648D01*
X111925000Y-103051000D01*
X111925000Y-100300000D01*
X112749882Y-100300000D01*
X112768242Y-100415918D01*
X112821523Y-100520489D01*
X112904511Y-100603477D01*
X112907948Y-100605228D01*
X112907949Y-100605229D01*
X112956796Y-100630117D01*
X113009082Y-100656758D01*
X113125000Y-100675118D01*
X113240918Y-100656758D01*
X113293204Y-100630117D01*
X113342051Y-100605229D01*
X113342052Y-100605228D01*
X113345489Y-100603477D01*
X113428477Y-100520489D01*
X113481758Y-100415918D01*
X113500118Y-100300000D01*
X113949882Y-100300000D01*
X113968242Y-100415918D01*
X114021523Y-100520489D01*
X114104511Y-100603477D01*
X114107948Y-100605228D01*
X114107949Y-100605229D01*
X114156796Y-100630117D01*
X114209082Y-100656758D01*
X114325000Y-100675118D01*
X114440918Y-100656758D01*
X114493204Y-100630117D01*
X114542051Y-100605229D01*
X114542052Y-100605228D01*
X114545489Y-100603477D01*
X114628477Y-100520489D01*
X114681758Y-100415918D01*
X114700118Y-100300000D01*
X115949882Y-100300000D01*
X115968242Y-100415918D01*
X116021523Y-100520489D01*
X116104511Y-100603477D01*
X116107948Y-100605228D01*
X116107949Y-100605229D01*
X116156796Y-100630117D01*
X116209082Y-100656758D01*
X116325000Y-100675118D01*
X116440918Y-100656758D01*
X116493204Y-100630117D01*
X116542051Y-100605229D01*
X116542052Y-100605228D01*
X116545489Y-100603477D01*
X116628477Y-100520489D01*
X116681758Y-100415918D01*
X116700118Y-100300000D01*
X116681758Y-100184082D01*
X116652363Y-100126390D01*
X116649420Y-100089003D01*
X116673777Y-100060486D01*
X116711164Y-100057543D01*
X116718267Y-100060486D01*
X116809082Y-100106758D01*
X116925000Y-100125118D01*
X117040918Y-100106758D01*
X117131733Y-100060486D01*
X117169120Y-100057543D01*
X117197637Y-100081900D01*
X117200580Y-100119287D01*
X117197637Y-100126390D01*
X117168242Y-100184082D01*
X117149882Y-100300000D01*
X117168242Y-100415918D01*
X117221523Y-100520489D01*
X117304511Y-100603477D01*
X117307948Y-100605228D01*
X117307949Y-100605229D01*
X117356796Y-100630117D01*
X117409082Y-100656758D01*
X117525000Y-100675118D01*
X117640918Y-100656758D01*
X117693204Y-100630117D01*
X117742051Y-100605229D01*
X117742052Y-100605228D01*
X117745489Y-100603477D01*
X117828477Y-100520489D01*
X117881758Y-100415918D01*
X117900118Y-100300000D01*
X117881758Y-100184082D01*
X117833929Y-100090211D01*
X117830229Y-100082949D01*
X117830228Y-100082948D01*
X117828477Y-100079511D01*
X117745489Y-99996523D01*
X117742052Y-99994772D01*
X117742051Y-99994771D01*
X117677802Y-99962035D01*
X117640918Y-99943242D01*
X117525000Y-99924882D01*
X117409082Y-99943242D01*
X117330713Y-99983172D01*
X117318267Y-99989514D01*
X117280880Y-99992457D01*
X117252363Y-99968100D01*
X117249420Y-99930713D01*
X117252363Y-99923610D01*
X117266259Y-99896336D01*
X117281758Y-99865918D01*
X117300118Y-99750000D01*
X117284279Y-99650000D01*
X119349882Y-99650000D01*
X119368242Y-99765918D01*
X119421523Y-99870489D01*
X119504511Y-99953477D01*
X119507948Y-99955228D01*
X119507949Y-99955229D01*
X119606165Y-100005272D01*
X119630522Y-100033789D01*
X119627579Y-100071176D01*
X119623972Y-100077062D01*
X119621523Y-100079511D01*
X119619772Y-100082948D01*
X119619771Y-100082949D01*
X119616071Y-100090211D01*
X119568242Y-100184082D01*
X119549882Y-100300000D01*
X119568242Y-100415918D01*
X119621523Y-100520489D01*
X119704511Y-100603477D01*
X119707948Y-100605228D01*
X119707949Y-100605229D01*
X119756796Y-100630117D01*
X119809082Y-100656758D01*
X119925000Y-100675118D01*
X120040918Y-100656758D01*
X120093204Y-100630117D01*
X120142051Y-100605229D01*
X120142052Y-100605228D01*
X120145489Y-100603477D01*
X120228477Y-100520489D01*
X120281341Y-100416736D01*
X120309858Y-100392379D01*
X120347245Y-100395322D01*
X120368659Y-100416736D01*
X120421523Y-100520489D01*
X120504511Y-100603477D01*
X120507948Y-100605228D01*
X120507949Y-100605229D01*
X120556796Y-100630117D01*
X120609082Y-100656758D01*
X120725000Y-100675118D01*
X120840918Y-100656758D01*
X120893204Y-100630117D01*
X120942051Y-100605229D01*
X120942052Y-100605228D01*
X120945489Y-100603477D01*
X121028477Y-100520489D01*
X121081758Y-100415918D01*
X121100118Y-100300000D01*
X122749882Y-100300000D01*
X122768242Y-100415918D01*
X122821523Y-100520489D01*
X122904511Y-100603477D01*
X122907948Y-100605228D01*
X122907949Y-100605229D01*
X122956796Y-100630117D01*
X123009082Y-100656758D01*
X123125000Y-100675118D01*
X123240918Y-100656758D01*
X123293204Y-100630117D01*
X123342051Y-100605229D01*
X123342052Y-100605228D01*
X123345489Y-100603477D01*
X123428477Y-100520489D01*
X123481758Y-100415918D01*
X123500118Y-100300000D01*
X125549882Y-100300000D01*
X125568242Y-100415918D01*
X125621523Y-100520489D01*
X125704511Y-100603477D01*
X125707948Y-100605228D01*
X125707949Y-100605229D01*
X125756796Y-100630117D01*
X125809082Y-100656758D01*
X125925000Y-100675118D01*
X126040918Y-100656758D01*
X126093204Y-100630117D01*
X126142051Y-100605229D01*
X126142052Y-100605228D01*
X126145489Y-100603477D01*
X126228477Y-100520489D01*
X126281758Y-100415918D01*
X126300118Y-100300000D01*
X126281758Y-100184082D01*
X126233929Y-100090211D01*
X126230229Y-100082949D01*
X126230228Y-100082948D01*
X126228477Y-100079511D01*
X126145489Y-99996523D01*
X126142052Y-99994772D01*
X126142051Y-99994771D01*
X126077802Y-99962035D01*
X126040918Y-99943242D01*
X125925000Y-99924882D01*
X125809082Y-99943242D01*
X125772198Y-99962035D01*
X125707949Y-99994771D01*
X125707948Y-99994772D01*
X125704511Y-99996523D01*
X125621523Y-100079511D01*
X125619772Y-100082948D01*
X125619771Y-100082949D01*
X125616071Y-100090211D01*
X125568242Y-100184082D01*
X125549882Y-100300000D01*
X123500118Y-100300000D01*
X123481758Y-100184082D01*
X123433929Y-100090211D01*
X123430229Y-100082949D01*
X123430228Y-100082948D01*
X123428477Y-100079511D01*
X123345489Y-99996523D01*
X123342052Y-99994772D01*
X123342051Y-99994771D01*
X123277802Y-99962035D01*
X123240918Y-99943242D01*
X123125000Y-99924882D01*
X123009082Y-99943242D01*
X122972198Y-99962035D01*
X122907949Y-99994771D01*
X122907948Y-99994772D01*
X122904511Y-99996523D01*
X122821523Y-100079511D01*
X122819772Y-100082948D01*
X122819771Y-100082949D01*
X122816071Y-100090211D01*
X122768242Y-100184082D01*
X122749882Y-100300000D01*
X121100118Y-100300000D01*
X121081758Y-100184082D01*
X121033929Y-100090211D01*
X121030229Y-100082949D01*
X121030228Y-100082948D01*
X121028477Y-100079511D01*
X120945489Y-99996523D01*
X120942052Y-99994772D01*
X120942051Y-99994771D01*
X120877802Y-99962035D01*
X120840918Y-99943242D01*
X120725000Y-99924882D01*
X120609082Y-99943242D01*
X120572198Y-99962035D01*
X120507949Y-99994771D01*
X120507948Y-99994772D01*
X120504511Y-99996523D01*
X120421523Y-100079511D01*
X120419772Y-100082948D01*
X120419771Y-100082949D01*
X120398285Y-100125118D01*
X120372810Y-100175118D01*
X120368659Y-100183264D01*
X120340142Y-100207621D01*
X120302755Y-100204678D01*
X120281341Y-100183264D01*
X120277191Y-100175118D01*
X120251715Y-100125118D01*
X120230229Y-100082949D01*
X120230228Y-100082948D01*
X120228477Y-100079511D01*
X120145489Y-99996523D01*
X120142052Y-99994772D01*
X120142051Y-99994771D01*
X120043835Y-99944728D01*
X120019478Y-99916211D01*
X120022421Y-99878824D01*
X120026028Y-99872938D01*
X120028477Y-99870489D01*
X120081758Y-99765918D01*
X120100118Y-99650000D01*
X120081758Y-99534082D01*
X120038535Y-99449251D01*
X120030229Y-99432949D01*
X120030228Y-99432948D01*
X120028477Y-99429511D01*
X119993159Y-99394193D01*
X121449697Y-99394193D01*
X121450149Y-99397650D01*
X121450149Y-99397653D01*
X121462849Y-99494771D01*
X121467172Y-99527828D01*
X121468578Y-99531023D01*
X121519254Y-99646193D01*
X121521451Y-99651187D01*
X121608172Y-99754353D01*
X121611076Y-99756286D01*
X121611077Y-99756287D01*
X121663966Y-99791493D01*
X121720362Y-99829033D01*
X121849002Y-99869223D01*
X121852492Y-99869287D01*
X121879851Y-99869788D01*
X121983752Y-99871693D01*
X121987116Y-99870776D01*
X122110410Y-99837163D01*
X122110413Y-99837162D01*
X122113779Y-99836244D01*
X122228631Y-99765725D01*
X122319073Y-99665806D01*
X122377836Y-99544518D01*
X122379783Y-99532949D01*
X122399883Y-99413476D01*
X122399883Y-99413473D01*
X122400196Y-99411614D01*
X122400338Y-99400000D01*
X122381232Y-99266588D01*
X122325450Y-99143902D01*
X122237475Y-99041803D01*
X122124382Y-98968499D01*
X121995259Y-98929883D01*
X121929100Y-98929479D01*
X121863981Y-98929081D01*
X121863979Y-98929081D01*
X121860489Y-98929060D01*
X121857134Y-98930019D01*
X121857133Y-98930019D01*
X121734260Y-98965136D01*
X121734259Y-98965136D01*
X121730905Y-98966095D01*
X121616924Y-99038012D01*
X121527709Y-99139029D01*
X121470432Y-99261025D01*
X121469895Y-99264474D01*
X121452704Y-99374882D01*
X121449697Y-99394193D01*
X119993159Y-99394193D01*
X119945489Y-99346523D01*
X119942052Y-99344772D01*
X119942051Y-99344771D01*
X119854181Y-99300000D01*
X119840918Y-99293242D01*
X119725000Y-99274882D01*
X119609082Y-99293242D01*
X119595819Y-99300000D01*
X119507949Y-99344771D01*
X119507948Y-99344772D01*
X119504511Y-99346523D01*
X119421523Y-99429511D01*
X119419772Y-99432948D01*
X119419771Y-99432949D01*
X119411465Y-99449251D01*
X119368242Y-99534082D01*
X119349882Y-99650000D01*
X117284279Y-99650000D01*
X117281758Y-99634082D01*
X117237723Y-99547657D01*
X117230229Y-99532949D01*
X117230228Y-99532948D01*
X117228477Y-99529511D01*
X117145489Y-99446523D01*
X117142052Y-99444772D01*
X117142051Y-99444771D01*
X117054181Y-99400000D01*
X117040918Y-99393242D01*
X116925000Y-99374882D01*
X116809082Y-99393242D01*
X116795819Y-99400000D01*
X116707949Y-99444771D01*
X116707948Y-99444772D01*
X116704511Y-99446523D01*
X116621523Y-99529511D01*
X116619772Y-99532948D01*
X116619771Y-99532949D01*
X116612277Y-99547657D01*
X116568242Y-99634082D01*
X116549882Y-99750000D01*
X116568242Y-99865918D01*
X116583741Y-99896336D01*
X116597637Y-99923610D01*
X116600580Y-99960997D01*
X116576223Y-99989514D01*
X116538836Y-99992457D01*
X116531733Y-99989514D01*
X116519287Y-99983172D01*
X116440918Y-99943242D01*
X116325000Y-99924882D01*
X116209082Y-99943242D01*
X116172198Y-99962035D01*
X116107949Y-99994771D01*
X116107948Y-99994772D01*
X116104511Y-99996523D01*
X116021523Y-100079511D01*
X116019772Y-100082948D01*
X116019771Y-100082949D01*
X116016071Y-100090211D01*
X115968242Y-100184082D01*
X115949882Y-100300000D01*
X114700118Y-100300000D01*
X114681758Y-100184082D01*
X114633929Y-100090211D01*
X114630229Y-100082949D01*
X114630228Y-100082948D01*
X114628477Y-100079511D01*
X114545489Y-99996523D01*
X114542052Y-99994772D01*
X114542051Y-99994771D01*
X114477802Y-99962035D01*
X114440918Y-99943242D01*
X114325000Y-99924882D01*
X114209082Y-99943242D01*
X114172198Y-99962035D01*
X114107949Y-99994771D01*
X114107948Y-99994772D01*
X114104511Y-99996523D01*
X114021523Y-100079511D01*
X114019772Y-100082948D01*
X114019771Y-100082949D01*
X114016071Y-100090211D01*
X113968242Y-100184082D01*
X113949882Y-100300000D01*
X113500118Y-100300000D01*
X113481758Y-100184082D01*
X113433929Y-100090211D01*
X113430229Y-100082949D01*
X113430228Y-100082948D01*
X113428477Y-100079511D01*
X113345489Y-99996523D01*
X113342052Y-99994772D01*
X113342051Y-99994771D01*
X113277802Y-99962035D01*
X113240918Y-99943242D01*
X113125000Y-99924882D01*
X113009082Y-99943242D01*
X112972198Y-99962035D01*
X112907949Y-99994771D01*
X112907948Y-99994772D01*
X112904511Y-99996523D01*
X112821523Y-100079511D01*
X112819772Y-100082948D01*
X112819771Y-100082949D01*
X112816071Y-100090211D01*
X112768242Y-100184082D01*
X112749882Y-100300000D01*
X111925000Y-100300000D01*
X111925000Y-99973600D01*
X111927398Y-99958459D01*
X111927748Y-99957383D01*
X111927748Y-99957380D01*
X111930146Y-99950000D01*
X111929460Y-99947889D01*
X111926131Y-99916211D01*
X111911273Y-99774853D01*
X111911005Y-99772302D01*
X111855791Y-99602370D01*
X111766452Y-99447631D01*
X111762501Y-99443242D01*
X111648616Y-99316760D01*
X111646894Y-99314847D01*
X111619569Y-99294994D01*
X111504421Y-99211335D01*
X111504420Y-99211334D01*
X111502341Y-99209824D01*
X111339111Y-99137149D01*
X111251725Y-99118574D01*
X111166848Y-99100533D01*
X111166845Y-99100533D01*
X111164339Y-99100000D01*
X110985661Y-99100000D01*
X110983155Y-99100533D01*
X110983152Y-99100533D01*
X110898275Y-99118575D01*
X110810889Y-99137149D01*
X110647659Y-99209824D01*
X110645580Y-99211334D01*
X110645579Y-99211335D01*
X110530432Y-99294994D01*
X110503106Y-99314847D01*
X110501384Y-99316760D01*
X110387500Y-99443242D01*
X110383548Y-99447631D01*
X110294209Y-99602370D01*
X110238995Y-99772302D01*
X110220540Y-99947889D01*
X110219854Y-99950000D01*
X110222252Y-99957380D01*
X110222252Y-99957383D01*
X110222602Y-99958459D01*
X110225000Y-99973600D01*
X110225000Y-103051000D01*
X110210648Y-103085648D01*
X110176000Y-103100000D01*
X102224000Y-103100000D01*
X102189352Y-103085648D01*
X102175000Y-103051000D01*
X102175000Y-100773600D01*
X102177398Y-100758459D01*
X102177748Y-100757381D01*
X102177748Y-100757380D01*
X102180146Y-100750000D01*
X102178664Y-100745438D01*
X102164854Y-100605229D01*
X102162937Y-100585763D01*
X102162936Y-100585759D01*
X102162701Y-100583371D01*
X102114098Y-100423145D01*
X102048275Y-100300000D01*
X103949882Y-100300000D01*
X103968242Y-100415918D01*
X104021523Y-100520489D01*
X104104511Y-100603477D01*
X104107948Y-100605228D01*
X104107949Y-100605229D01*
X104156796Y-100630117D01*
X104209082Y-100656758D01*
X104325000Y-100675118D01*
X104440918Y-100656758D01*
X104493204Y-100630117D01*
X104542051Y-100605229D01*
X104542052Y-100605228D01*
X104545489Y-100603477D01*
X104628477Y-100520489D01*
X104681758Y-100415918D01*
X104700118Y-100300000D01*
X105949882Y-100300000D01*
X105968242Y-100415918D01*
X106021523Y-100520489D01*
X106104511Y-100603477D01*
X106107948Y-100605228D01*
X106107949Y-100605229D01*
X106156796Y-100630117D01*
X106209082Y-100656758D01*
X106325000Y-100675118D01*
X106440918Y-100656758D01*
X106493204Y-100630117D01*
X106542051Y-100605229D01*
X106542052Y-100605228D01*
X106545489Y-100603477D01*
X106628477Y-100520489D01*
X106681758Y-100415918D01*
X106700118Y-100300000D01*
X108349882Y-100300000D01*
X108368242Y-100415918D01*
X108421523Y-100520489D01*
X108504511Y-100603477D01*
X108507948Y-100605228D01*
X108507949Y-100605229D01*
X108556796Y-100630117D01*
X108609082Y-100656758D01*
X108725000Y-100675118D01*
X108840918Y-100656758D01*
X108893204Y-100630117D01*
X108942051Y-100605229D01*
X108942052Y-100605228D01*
X108945489Y-100603477D01*
X109028477Y-100520489D01*
X109081758Y-100415918D01*
X109100118Y-100300000D01*
X109081758Y-100184082D01*
X109033929Y-100090211D01*
X109030229Y-100082949D01*
X109030228Y-100082948D01*
X109028477Y-100079511D01*
X108945489Y-99996523D01*
X108942052Y-99994772D01*
X108942051Y-99994771D01*
X108877802Y-99962035D01*
X108840918Y-99943242D01*
X108725000Y-99924882D01*
X108609082Y-99943242D01*
X108572198Y-99962035D01*
X108507949Y-99994771D01*
X108507948Y-99994772D01*
X108504511Y-99996523D01*
X108421523Y-100079511D01*
X108419772Y-100082948D01*
X108419771Y-100082949D01*
X108416071Y-100090211D01*
X108368242Y-100184082D01*
X108349882Y-100300000D01*
X106700118Y-100300000D01*
X106681758Y-100184082D01*
X106633929Y-100090211D01*
X106630229Y-100082949D01*
X106630228Y-100082948D01*
X106628477Y-100079511D01*
X106545489Y-99996523D01*
X106542052Y-99994772D01*
X106542051Y-99994771D01*
X106477802Y-99962035D01*
X106440918Y-99943242D01*
X106325000Y-99924882D01*
X106209082Y-99943242D01*
X106172198Y-99962035D01*
X106107949Y-99994771D01*
X106107948Y-99994772D01*
X106104511Y-99996523D01*
X106021523Y-100079511D01*
X106019772Y-100082948D01*
X106019771Y-100082949D01*
X106016071Y-100090211D01*
X105968242Y-100184082D01*
X105949882Y-100300000D01*
X104700118Y-100300000D01*
X104681758Y-100184082D01*
X104633929Y-100090211D01*
X104630229Y-100082949D01*
X104630228Y-100082948D01*
X104628477Y-100079511D01*
X104545489Y-99996523D01*
X104542052Y-99994772D01*
X104542051Y-99994771D01*
X104477802Y-99962035D01*
X104440918Y-99943242D01*
X104325000Y-99924882D01*
X104209082Y-99943242D01*
X104172198Y-99962035D01*
X104107949Y-99994771D01*
X104107948Y-99994772D01*
X104104511Y-99996523D01*
X104021523Y-100079511D01*
X104019772Y-100082948D01*
X104019771Y-100082949D01*
X104016071Y-100090211D01*
X103968242Y-100184082D01*
X103949882Y-100300000D01*
X102048275Y-100300000D01*
X102036304Y-100277603D01*
X102036303Y-100277601D01*
X102035169Y-100275480D01*
X101928949Y-100146051D01*
X101799520Y-100039831D01*
X101788217Y-100033789D01*
X101653975Y-99962035D01*
X101653974Y-99962034D01*
X101651855Y-99960902D01*
X101491629Y-99912299D01*
X101489241Y-99912064D01*
X101489237Y-99912063D01*
X101335283Y-99896899D01*
X101335282Y-99896899D01*
X101329562Y-99896336D01*
X101325000Y-99894854D01*
X101317620Y-99897252D01*
X101317619Y-99897252D01*
X101316541Y-99897602D01*
X101301400Y-99900000D01*
X100149000Y-99900000D01*
X100114352Y-99885648D01*
X100100000Y-99851000D01*
X100100000Y-99800000D01*
X102149882Y-99800000D01*
X102168242Y-99915918D01*
X102190807Y-99960204D01*
X102213770Y-100005272D01*
X102221523Y-100020489D01*
X102304511Y-100103477D01*
X102307948Y-100105228D01*
X102307949Y-100105229D01*
X102329672Y-100116297D01*
X102409082Y-100156758D01*
X102525000Y-100175118D01*
X102640918Y-100156758D01*
X102720328Y-100116297D01*
X102742051Y-100105229D01*
X102742052Y-100105228D01*
X102745489Y-100103477D01*
X102828477Y-100020489D01*
X102836231Y-100005272D01*
X102859193Y-99960204D01*
X102881758Y-99915918D01*
X102900118Y-99800000D01*
X105149882Y-99800000D01*
X105168242Y-99915918D01*
X105190807Y-99960204D01*
X105213770Y-100005272D01*
X105221523Y-100020489D01*
X105304511Y-100103477D01*
X105307948Y-100105228D01*
X105307949Y-100105229D01*
X105329672Y-100116297D01*
X105409082Y-100156758D01*
X105525000Y-100175118D01*
X105640918Y-100156758D01*
X105720328Y-100116297D01*
X105742051Y-100105229D01*
X105742052Y-100105228D01*
X105745489Y-100103477D01*
X105828477Y-100020489D01*
X105836231Y-100005272D01*
X105859193Y-99960204D01*
X105881758Y-99915918D01*
X105900118Y-99800000D01*
X105881758Y-99684082D01*
X105854530Y-99630644D01*
X105830229Y-99582949D01*
X105830228Y-99582948D01*
X105828477Y-99579511D01*
X105745489Y-99496523D01*
X105742052Y-99494772D01*
X105742051Y-99494771D01*
X105693203Y-99469882D01*
X105640918Y-99443242D01*
X105525000Y-99424882D01*
X105409082Y-99443242D01*
X105356797Y-99469882D01*
X105307949Y-99494771D01*
X105307948Y-99494772D01*
X105304511Y-99496523D01*
X105221523Y-99579511D01*
X105219772Y-99582948D01*
X105219771Y-99582949D01*
X105195470Y-99630644D01*
X105168242Y-99684082D01*
X105149882Y-99800000D01*
X102900118Y-99800000D01*
X102881758Y-99684082D01*
X102854530Y-99630644D01*
X102830229Y-99582949D01*
X102830228Y-99582948D01*
X102828477Y-99579511D01*
X102745489Y-99496523D01*
X102742052Y-99494772D01*
X102742051Y-99494771D01*
X102693203Y-99469882D01*
X102640918Y-99443242D01*
X102525000Y-99424882D01*
X102409082Y-99443242D01*
X102356797Y-99469882D01*
X102307949Y-99494771D01*
X102307948Y-99494772D01*
X102304511Y-99496523D01*
X102221523Y-99579511D01*
X102219772Y-99582948D01*
X102219771Y-99582949D01*
X102195470Y-99630644D01*
X102168242Y-99684082D01*
X102149882Y-99800000D01*
X100100000Y-99800000D01*
X100100000Y-91594376D01*
X110019455Y-91594376D01*
X110038227Y-91772983D01*
X110096103Y-91942993D01*
X110097539Y-91945327D01*
X110172732Y-92067551D01*
X110190206Y-92095955D01*
X110192121Y-92097911D01*
X110192123Y-92097913D01*
X110313941Y-92222310D01*
X110313944Y-92222312D01*
X110315859Y-92224268D01*
X110466817Y-92321554D01*
X110574683Y-92360814D01*
X110633003Y-92382041D01*
X110633005Y-92382041D01*
X110635578Y-92382978D01*
X110774283Y-92400500D01*
X110870155Y-92400500D01*
X110871506Y-92400348D01*
X110871514Y-92400348D01*
X111000754Y-92385851D01*
X111000755Y-92385851D01*
X111003472Y-92385546D01*
X111041696Y-92372235D01*
X111170484Y-92327387D01*
X111170487Y-92327385D01*
X111173073Y-92326485D01*
X111180965Y-92321554D01*
X111323050Y-92232769D01*
X111323051Y-92232768D01*
X111325375Y-92231316D01*
X111332473Y-92224268D01*
X111420187Y-92137163D01*
X111452807Y-92104770D01*
X111539355Y-91968393D01*
X111547570Y-91955448D01*
X111547571Y-91955446D01*
X111549037Y-91953136D01*
X111550870Y-91947990D01*
X111608362Y-91786532D01*
X111609281Y-91783951D01*
X111619984Y-91694193D01*
X114015994Y-91694193D01*
X114016446Y-91697650D01*
X114016446Y-91697653D01*
X114025941Y-91770260D01*
X114033469Y-91827828D01*
X114034875Y-91831023D01*
X114085170Y-91945327D01*
X114087748Y-91951187D01*
X114174469Y-92054353D01*
X114286659Y-92129033D01*
X114415299Y-92169223D01*
X114418789Y-92169287D01*
X114446148Y-92169788D01*
X114550049Y-92171693D01*
X114553413Y-92170776D01*
X114676707Y-92137163D01*
X114676710Y-92137162D01*
X114680076Y-92136244D01*
X114794928Y-92065725D01*
X114885370Y-91965806D01*
X114944133Y-91844518D01*
X114946404Y-91831023D01*
X114966180Y-91713476D01*
X114966180Y-91713473D01*
X114966493Y-91711614D01*
X114966635Y-91700000D01*
X114947529Y-91566588D01*
X114891747Y-91443902D01*
X114870094Y-91418772D01*
X114826684Y-91368393D01*
X114803772Y-91341803D01*
X114690679Y-91268499D01*
X114561556Y-91229883D01*
X114495397Y-91229479D01*
X114430278Y-91229081D01*
X114430276Y-91229081D01*
X114426786Y-91229060D01*
X114423431Y-91230019D01*
X114423430Y-91230019D01*
X114300557Y-91265136D01*
X114300556Y-91265136D01*
X114297202Y-91266095D01*
X114183221Y-91338012D01*
X114118937Y-91410800D01*
X114106906Y-91424423D01*
X114094006Y-91439029D01*
X114036729Y-91561025D01*
X114015994Y-91694193D01*
X111619984Y-91694193D01*
X111630545Y-91605624D01*
X111626883Y-91570776D01*
X111614646Y-91454353D01*
X111611773Y-91427017D01*
X111553897Y-91257007D01*
X111465596Y-91113476D01*
X111461229Y-91106377D01*
X111461227Y-91106375D01*
X111459794Y-91104045D01*
X111457877Y-91102087D01*
X111450147Y-91094193D01*
X118024697Y-91094193D01*
X118025149Y-91097650D01*
X118025149Y-91097653D01*
X118041719Y-91224366D01*
X118042172Y-91227828D01*
X118096451Y-91351187D01*
X118183172Y-91454353D01*
X118295362Y-91529033D01*
X118424002Y-91569223D01*
X118427492Y-91569287D01*
X118454851Y-91569788D01*
X118558752Y-91571693D01*
X118564797Y-91570045D01*
X118685410Y-91537163D01*
X118685413Y-91537162D01*
X118688779Y-91536244D01*
X118803631Y-91465725D01*
X118894073Y-91365806D01*
X118952836Y-91244518D01*
X118955107Y-91231023D01*
X118974883Y-91113476D01*
X118974883Y-91113473D01*
X118975196Y-91111614D01*
X118975289Y-91104045D01*
X118975315Y-91101902D01*
X118975315Y-91101899D01*
X118975338Y-91100000D01*
X118956232Y-90966588D01*
X118900450Y-90843902D01*
X118877289Y-90817022D01*
X118814753Y-90744447D01*
X118812475Y-90741803D01*
X118699382Y-90668499D01*
X118570259Y-90629883D01*
X118504100Y-90629479D01*
X118438981Y-90629081D01*
X118438979Y-90629081D01*
X118435489Y-90629060D01*
X118432134Y-90630019D01*
X118432133Y-90630019D01*
X118309260Y-90665136D01*
X118309259Y-90665136D01*
X118305905Y-90666095D01*
X118191924Y-90738012D01*
X118102709Y-90839029D01*
X118045432Y-90961025D01*
X118024697Y-91094193D01*
X111450147Y-91094193D01*
X111336059Y-90977690D01*
X111336056Y-90977688D01*
X111334141Y-90975732D01*
X111183183Y-90878446D01*
X111067693Y-90836411D01*
X111016997Y-90817959D01*
X111016995Y-90817959D01*
X111014422Y-90817022D01*
X110875717Y-90799500D01*
X110779845Y-90799500D01*
X110778494Y-90799652D01*
X110778486Y-90799652D01*
X110649246Y-90814149D01*
X110649245Y-90814149D01*
X110646528Y-90814454D01*
X110643940Y-90815355D01*
X110643941Y-90815355D01*
X110479516Y-90872613D01*
X110479513Y-90872615D01*
X110476927Y-90873515D01*
X110474604Y-90874966D01*
X110474603Y-90874967D01*
X110341939Y-90957865D01*
X110324625Y-90968684D01*
X110322682Y-90970613D01*
X110322680Y-90970615D01*
X110315556Y-90977690D01*
X110197193Y-91095230D01*
X110186795Y-91111614D01*
X110113044Y-91227828D01*
X110100963Y-91246864D01*
X110100045Y-91249442D01*
X110100044Y-91249444D01*
X110041638Y-91413468D01*
X110040719Y-91416049D01*
X110040395Y-91418769D01*
X110040394Y-91418772D01*
X110034578Y-91467551D01*
X110019455Y-91594376D01*
X100100000Y-91594376D01*
X100100000Y-90094193D01*
X103799697Y-90094193D01*
X103800149Y-90097650D01*
X103800149Y-90097653D01*
X103806688Y-90147657D01*
X103817172Y-90227828D01*
X103871451Y-90351187D01*
X103958172Y-90454353D01*
X104070362Y-90529033D01*
X104199002Y-90569223D01*
X104202492Y-90569287D01*
X104229851Y-90569788D01*
X104333752Y-90571693D01*
X104337116Y-90570776D01*
X104460410Y-90537163D01*
X104460413Y-90537162D01*
X104463779Y-90536244D01*
X104578631Y-90465725D01*
X104669073Y-90365806D01*
X104727836Y-90244518D01*
X104730107Y-90231023D01*
X104749883Y-90113476D01*
X104749883Y-90113473D01*
X104750196Y-90111614D01*
X104750338Y-90100000D01*
X104749506Y-90094193D01*
X106399697Y-90094193D01*
X106400149Y-90097650D01*
X106400149Y-90097653D01*
X106406688Y-90147657D01*
X106417172Y-90227828D01*
X106471451Y-90351187D01*
X106558172Y-90454353D01*
X106670362Y-90529033D01*
X106799002Y-90569223D01*
X106802492Y-90569287D01*
X106829851Y-90569788D01*
X106933752Y-90571693D01*
X106937116Y-90570776D01*
X107060410Y-90537163D01*
X107060413Y-90537162D01*
X107063779Y-90536244D01*
X107178631Y-90465725D01*
X107269073Y-90365806D01*
X107327836Y-90244518D01*
X107330107Y-90231023D01*
X107349883Y-90113476D01*
X107349883Y-90113473D01*
X107350196Y-90111614D01*
X107350338Y-90100000D01*
X107335185Y-89994193D01*
X118924697Y-89994193D01*
X118925149Y-89997650D01*
X118925149Y-89997653D01*
X118940295Y-90113476D01*
X118942172Y-90127828D01*
X118943578Y-90131023D01*
X118994898Y-90247657D01*
X118996451Y-90251187D01*
X119083172Y-90354353D01*
X119086076Y-90356286D01*
X119086077Y-90356287D01*
X119102999Y-90367551D01*
X119195362Y-90429033D01*
X119324002Y-90469223D01*
X119327492Y-90469287D01*
X119354851Y-90469788D01*
X119458752Y-90471693D01*
X119462116Y-90470776D01*
X119585410Y-90437163D01*
X119585413Y-90437162D01*
X119588779Y-90436244D01*
X119703631Y-90365725D01*
X119794073Y-90265806D01*
X119852836Y-90144518D01*
X119855107Y-90131023D01*
X119874883Y-90013476D01*
X119874883Y-90013473D01*
X119875196Y-90011614D01*
X119875338Y-90000000D01*
X119856232Y-89866588D01*
X119800450Y-89743902D01*
X119712475Y-89641803D01*
X119694085Y-89629883D01*
X119602312Y-89570398D01*
X119602311Y-89570398D01*
X119599382Y-89568499D01*
X119470259Y-89529883D01*
X119404100Y-89529479D01*
X119338981Y-89529081D01*
X119338979Y-89529081D01*
X119335489Y-89529060D01*
X119332134Y-89530019D01*
X119332133Y-89530019D01*
X119209260Y-89565136D01*
X119209259Y-89565136D01*
X119205905Y-89566095D01*
X119091924Y-89638012D01*
X119002709Y-89739029D01*
X118945432Y-89861025D01*
X118924697Y-89994193D01*
X107335185Y-89994193D01*
X107331232Y-89966588D01*
X107275450Y-89843902D01*
X107187475Y-89741803D01*
X107184547Y-89739905D01*
X107077312Y-89670398D01*
X107077311Y-89670398D01*
X107074382Y-89668499D01*
X106945259Y-89629883D01*
X106879100Y-89629479D01*
X106813981Y-89629081D01*
X106813979Y-89629081D01*
X106810489Y-89629060D01*
X106807134Y-89630019D01*
X106807133Y-89630019D01*
X106684260Y-89665136D01*
X106684259Y-89665136D01*
X106680905Y-89666095D01*
X106566924Y-89738012D01*
X106477709Y-89839029D01*
X106420432Y-89961025D01*
X106419895Y-89964474D01*
X106415268Y-89994193D01*
X106399697Y-90094193D01*
X104749506Y-90094193D01*
X104731232Y-89966588D01*
X104675450Y-89843902D01*
X104587475Y-89741803D01*
X104584547Y-89739905D01*
X104477312Y-89670398D01*
X104477311Y-89670398D01*
X104474382Y-89668499D01*
X104345259Y-89629883D01*
X104279100Y-89629479D01*
X104213981Y-89629081D01*
X104213979Y-89629081D01*
X104210489Y-89629060D01*
X104207134Y-89630019D01*
X104207133Y-89630019D01*
X104084260Y-89665136D01*
X104084259Y-89665136D01*
X104080905Y-89666095D01*
X103966924Y-89738012D01*
X103877709Y-89839029D01*
X103820432Y-89961025D01*
X103819895Y-89964474D01*
X103815268Y-89994193D01*
X103799697Y-90094193D01*
X100100000Y-90094193D01*
X100100000Y-88844193D01*
X106399697Y-88844193D01*
X106400149Y-88847650D01*
X106400149Y-88847653D01*
X106407243Y-88901902D01*
X106417172Y-88977828D01*
X106471451Y-89101187D01*
X106558172Y-89204353D01*
X106670362Y-89279033D01*
X106799002Y-89319223D01*
X106802492Y-89319287D01*
X106829851Y-89319788D01*
X106933752Y-89321693D01*
X106937116Y-89320776D01*
X107060410Y-89287163D01*
X107060413Y-89287162D01*
X107063779Y-89286244D01*
X107178631Y-89215725D01*
X107269073Y-89115806D01*
X107327836Y-88994518D01*
X107330107Y-88981023D01*
X107344715Y-88894193D01*
X118424697Y-88894193D01*
X118425149Y-88897650D01*
X118425149Y-88897653D01*
X118441719Y-89024366D01*
X118442172Y-89027828D01*
X118443578Y-89031023D01*
X118474451Y-89101187D01*
X118496451Y-89151187D01*
X118583172Y-89254353D01*
X118695362Y-89329033D01*
X118824002Y-89369223D01*
X118827492Y-89369287D01*
X118854851Y-89369788D01*
X118958752Y-89371693D01*
X118962116Y-89370776D01*
X119085410Y-89337163D01*
X119085413Y-89337162D01*
X119088779Y-89336244D01*
X119203631Y-89265725D01*
X119294073Y-89165806D01*
X119352836Y-89044518D01*
X119355107Y-89031023D01*
X119374883Y-88913476D01*
X119374883Y-88913473D01*
X119375196Y-88911614D01*
X119375338Y-88900000D01*
X119356232Y-88766588D01*
X119300450Y-88643902D01*
X119293852Y-88636244D01*
X119233088Y-88565725D01*
X119212475Y-88541803D01*
X119203755Y-88536151D01*
X119102312Y-88470398D01*
X119102311Y-88470398D01*
X119099382Y-88468499D01*
X118970259Y-88429883D01*
X118904100Y-88429479D01*
X118838981Y-88429081D01*
X118838979Y-88429081D01*
X118835489Y-88429060D01*
X118832134Y-88430019D01*
X118832133Y-88430019D01*
X118709260Y-88465136D01*
X118709259Y-88465136D01*
X118705905Y-88466095D01*
X118591924Y-88538012D01*
X118544899Y-88591258D01*
X118505169Y-88636244D01*
X118502709Y-88639029D01*
X118445432Y-88761025D01*
X118444895Y-88764474D01*
X118429480Y-88863476D01*
X118424697Y-88894193D01*
X107344715Y-88894193D01*
X107349883Y-88863476D01*
X107349883Y-88863473D01*
X107350196Y-88861614D01*
X107350338Y-88850000D01*
X107331232Y-88716588D01*
X107275450Y-88593902D01*
X107187475Y-88491803D01*
X107178755Y-88486151D01*
X107077312Y-88420398D01*
X107077311Y-88420398D01*
X107074382Y-88418499D01*
X106945259Y-88379883D01*
X106879100Y-88379479D01*
X106813981Y-88379081D01*
X106813979Y-88379081D01*
X106810489Y-88379060D01*
X106807134Y-88380019D01*
X106807133Y-88380019D01*
X106684260Y-88415136D01*
X106684259Y-88415136D01*
X106680905Y-88416095D01*
X106566924Y-88488012D01*
X106477709Y-88589029D01*
X106420432Y-88711025D01*
X106419895Y-88714474D01*
X106411781Y-88766588D01*
X106399697Y-88844193D01*
X100100000Y-88844193D01*
X100100000Y-88194193D01*
X117624697Y-88194193D01*
X117625149Y-88197650D01*
X117625149Y-88197653D01*
X117641719Y-88324366D01*
X117642172Y-88327828D01*
X117643578Y-88331023D01*
X117682904Y-88420398D01*
X117696451Y-88451187D01*
X117783172Y-88554353D01*
X117895362Y-88629033D01*
X118024002Y-88669223D01*
X118027492Y-88669287D01*
X118054851Y-88669788D01*
X118158752Y-88671693D01*
X118162116Y-88670776D01*
X118285410Y-88637163D01*
X118285413Y-88637162D01*
X118288779Y-88636244D01*
X118403631Y-88565725D01*
X118494073Y-88465806D01*
X118552836Y-88344518D01*
X118555107Y-88331023D01*
X118574883Y-88213476D01*
X118574883Y-88213473D01*
X118575196Y-88211614D01*
X118575338Y-88200000D01*
X118556232Y-88066588D01*
X118500450Y-87943902D01*
X118412475Y-87841803D01*
X118403755Y-87836151D01*
X118302312Y-87770398D01*
X118302311Y-87770398D01*
X118299382Y-87768499D01*
X118170259Y-87729883D01*
X118104100Y-87729479D01*
X118038981Y-87729081D01*
X118038979Y-87729081D01*
X118035489Y-87729060D01*
X118032134Y-87730019D01*
X118032133Y-87730019D01*
X117909260Y-87765136D01*
X117909259Y-87765136D01*
X117905905Y-87766095D01*
X117791924Y-87838012D01*
X117702709Y-87939029D01*
X117645432Y-88061025D01*
X117624697Y-88194193D01*
X100100000Y-88194193D01*
X100100000Y-87344193D01*
X106399697Y-87344193D01*
X106400149Y-87347650D01*
X106400149Y-87347653D01*
X106413753Y-87451684D01*
X106417172Y-87477828D01*
X106418578Y-87481023D01*
X106457387Y-87569223D01*
X106471451Y-87601187D01*
X106558172Y-87704353D01*
X106561076Y-87706286D01*
X106561077Y-87706287D01*
X106596525Y-87729883D01*
X106670362Y-87779033D01*
X106799002Y-87819223D01*
X106802492Y-87819287D01*
X106829851Y-87819788D01*
X106933752Y-87821693D01*
X106937116Y-87820776D01*
X107060410Y-87787163D01*
X107060413Y-87787162D01*
X107063779Y-87786244D01*
X107178631Y-87715725D01*
X107269073Y-87615806D01*
X107327836Y-87494518D01*
X107330107Y-87481023D01*
X107349883Y-87363476D01*
X107349883Y-87363473D01*
X107350196Y-87361614D01*
X107350338Y-87350000D01*
X107331232Y-87216588D01*
X107275582Y-87094193D01*
X118924697Y-87094193D01*
X118925149Y-87097650D01*
X118925149Y-87097653D01*
X118940702Y-87216588D01*
X118942172Y-87227828D01*
X118943578Y-87231023D01*
X118993374Y-87344193D01*
X118996451Y-87351187D01*
X119083172Y-87454353D01*
X119195362Y-87529033D01*
X119324002Y-87569223D01*
X119327492Y-87569287D01*
X119354851Y-87569788D01*
X119458752Y-87571693D01*
X119462116Y-87570776D01*
X119585410Y-87537163D01*
X119585413Y-87537162D01*
X119588779Y-87536244D01*
X119703631Y-87465725D01*
X119794073Y-87365806D01*
X119852836Y-87244518D01*
X119855107Y-87231023D01*
X119874883Y-87113476D01*
X119874883Y-87113473D01*
X119875196Y-87111614D01*
X119875338Y-87100000D01*
X119856232Y-86966588D01*
X119800450Y-86843902D01*
X119712475Y-86741803D01*
X119599382Y-86668499D01*
X119470259Y-86629883D01*
X119404100Y-86629479D01*
X119338981Y-86629081D01*
X119338979Y-86629081D01*
X119335489Y-86629060D01*
X119332134Y-86630019D01*
X119332133Y-86630019D01*
X119209260Y-86665136D01*
X119209259Y-86665136D01*
X119205905Y-86666095D01*
X119091924Y-86738012D01*
X119002709Y-86839029D01*
X118945432Y-86961025D01*
X118944895Y-86964474D01*
X118925909Y-87086411D01*
X118924697Y-87094193D01*
X107275582Y-87094193D01*
X107275450Y-87093902D01*
X107272733Y-87090748D01*
X107189753Y-86994447D01*
X107187475Y-86991803D01*
X107153907Y-86970045D01*
X107077312Y-86920398D01*
X107077311Y-86920398D01*
X107074382Y-86918499D01*
X106945259Y-86879883D01*
X106879100Y-86879479D01*
X106813981Y-86879081D01*
X106813979Y-86879081D01*
X106810489Y-86879060D01*
X106807134Y-86880019D01*
X106807133Y-86880019D01*
X106684260Y-86915136D01*
X106684259Y-86915136D01*
X106680905Y-86916095D01*
X106566924Y-86988012D01*
X106477709Y-87089029D01*
X106420432Y-87211025D01*
X106399697Y-87344193D01*
X100100000Y-87344193D01*
X100100000Y-85844193D01*
X106399697Y-85844193D01*
X106400149Y-85847650D01*
X106400149Y-85847653D01*
X106416719Y-85974366D01*
X106417172Y-85977828D01*
X106471451Y-86101187D01*
X106558172Y-86204353D01*
X106670362Y-86279033D01*
X106799002Y-86319223D01*
X106802492Y-86319287D01*
X106829851Y-86319788D01*
X106933752Y-86321693D01*
X106937116Y-86320776D01*
X107060410Y-86287163D01*
X107060413Y-86287162D01*
X107063779Y-86286244D01*
X107178631Y-86215725D01*
X107269073Y-86115806D01*
X107327836Y-85994518D01*
X107327891Y-85994193D01*
X118024697Y-85994193D01*
X118025149Y-85997650D01*
X118025149Y-85997653D01*
X118040189Y-86112666D01*
X118042172Y-86127828D01*
X118043578Y-86131023D01*
X118076695Y-86206287D01*
X118096451Y-86251187D01*
X118183172Y-86354353D01*
X118295362Y-86429033D01*
X118424002Y-86469223D01*
X118427492Y-86469287D01*
X118454851Y-86469788D01*
X118558752Y-86471693D01*
X118562116Y-86470776D01*
X118685410Y-86437163D01*
X118685413Y-86437162D01*
X118688779Y-86436244D01*
X118803631Y-86365725D01*
X118894073Y-86265806D01*
X118952836Y-86144518D01*
X118955107Y-86131023D01*
X118974883Y-86013476D01*
X118974883Y-86013473D01*
X118975196Y-86011614D01*
X118975338Y-86000000D01*
X118956232Y-85866588D01*
X118900450Y-85743902D01*
X118812475Y-85641803D01*
X118806626Y-85638012D01*
X118702312Y-85570398D01*
X118702311Y-85570398D01*
X118699382Y-85568499D01*
X118570259Y-85529883D01*
X118504100Y-85529479D01*
X118438981Y-85529081D01*
X118438979Y-85529081D01*
X118435489Y-85529060D01*
X118432134Y-85530019D01*
X118432133Y-85530019D01*
X118309260Y-85565136D01*
X118309259Y-85565136D01*
X118305905Y-85566095D01*
X118191924Y-85638012D01*
X118102709Y-85739029D01*
X118045432Y-85861025D01*
X118044895Y-85864474D01*
X118026748Y-85981023D01*
X118024697Y-85994193D01*
X107327891Y-85994193D01*
X107328471Y-85990748D01*
X107349883Y-85863476D01*
X107349883Y-85863473D01*
X107350196Y-85861614D01*
X107350338Y-85850000D01*
X107331232Y-85716588D01*
X107275450Y-85593902D01*
X107255198Y-85570398D01*
X107189753Y-85494447D01*
X107187475Y-85491803D01*
X107074382Y-85418499D01*
X106945259Y-85379883D01*
X106879100Y-85379479D01*
X106813981Y-85379081D01*
X106813979Y-85379081D01*
X106810489Y-85379060D01*
X106807134Y-85380019D01*
X106807133Y-85380019D01*
X106684260Y-85415136D01*
X106684259Y-85415136D01*
X106680905Y-85416095D01*
X106566924Y-85488012D01*
X106477709Y-85589029D01*
X106420432Y-85711025D01*
X106419895Y-85714474D01*
X106415725Y-85741258D01*
X106399697Y-85844193D01*
X100100000Y-85844193D01*
X100100000Y-85194193D01*
X114015994Y-85194193D01*
X114016446Y-85197650D01*
X114016446Y-85197653D01*
X114033016Y-85324366D01*
X114033469Y-85327828D01*
X114034875Y-85331023D01*
X114074201Y-85420398D01*
X114087748Y-85451187D01*
X114174469Y-85554353D01*
X114177373Y-85556286D01*
X114177374Y-85556287D01*
X114194218Y-85567499D01*
X114286659Y-85629033D01*
X114415299Y-85669223D01*
X114418789Y-85669287D01*
X114446148Y-85669788D01*
X114550049Y-85671693D01*
X114553413Y-85670776D01*
X114676707Y-85637163D01*
X114676710Y-85637162D01*
X114680076Y-85636244D01*
X114794928Y-85565725D01*
X114885370Y-85465806D01*
X114944133Y-85344518D01*
X114946404Y-85331023D01*
X114966180Y-85213476D01*
X114966180Y-85213473D01*
X114966493Y-85211614D01*
X114966635Y-85200000D01*
X114947529Y-85066588D01*
X114891747Y-84943902D01*
X114803772Y-84841803D01*
X114795052Y-84836151D01*
X114693609Y-84770398D01*
X114693608Y-84770398D01*
X114690679Y-84768499D01*
X114561556Y-84729883D01*
X114495397Y-84729479D01*
X114430278Y-84729081D01*
X114430276Y-84729081D01*
X114426786Y-84729060D01*
X114423431Y-84730019D01*
X114423430Y-84730019D01*
X114300557Y-84765136D01*
X114300556Y-84765136D01*
X114297202Y-84766095D01*
X114183221Y-84838012D01*
X114094006Y-84939029D01*
X114036729Y-85061025D01*
X114015994Y-85194193D01*
X100100000Y-85194193D01*
X100100000Y-84344193D01*
X106399697Y-84344193D01*
X106400149Y-84347650D01*
X106400149Y-84347653D01*
X106416719Y-84474366D01*
X106417172Y-84477828D01*
X106471451Y-84601187D01*
X106558172Y-84704353D01*
X106561076Y-84706286D01*
X106561077Y-84706287D01*
X106596525Y-84729883D01*
X106670362Y-84779033D01*
X106799002Y-84819223D01*
X106802492Y-84819287D01*
X106829851Y-84819788D01*
X106933752Y-84821693D01*
X106937116Y-84820776D01*
X107060410Y-84787163D01*
X107060413Y-84787162D01*
X107063779Y-84786244D01*
X107178631Y-84715725D01*
X107269073Y-84615806D01*
X107327836Y-84494518D01*
X107330107Y-84481023D01*
X107349883Y-84363476D01*
X107349883Y-84363473D01*
X107350196Y-84361614D01*
X107350338Y-84350000D01*
X107331232Y-84216588D01*
X107275450Y-84093902D01*
X107187475Y-83991803D01*
X107074382Y-83918499D01*
X106945259Y-83879883D01*
X106879100Y-83879479D01*
X106813981Y-83879081D01*
X106813979Y-83879081D01*
X106810489Y-83879060D01*
X106807134Y-83880019D01*
X106807133Y-83880019D01*
X106684260Y-83915136D01*
X106684259Y-83915136D01*
X106680905Y-83916095D01*
X106566924Y-83988012D01*
X106477709Y-84089029D01*
X106420432Y-84211025D01*
X106399697Y-84344193D01*
X100100000Y-84344193D01*
X100100000Y-82844193D01*
X106399697Y-82844193D01*
X106400149Y-82847650D01*
X106400149Y-82847653D01*
X106416719Y-82974366D01*
X106417172Y-82977828D01*
X106471451Y-83101187D01*
X106558172Y-83204353D01*
X106670362Y-83279033D01*
X106799002Y-83319223D01*
X106802492Y-83319287D01*
X106829851Y-83319788D01*
X106933752Y-83321693D01*
X106937116Y-83320776D01*
X107060410Y-83287163D01*
X107060413Y-83287162D01*
X107063779Y-83286244D01*
X107178631Y-83215725D01*
X107269073Y-83115806D01*
X107327836Y-82994518D01*
X107330107Y-82981023D01*
X107349883Y-82863476D01*
X107349883Y-82863473D01*
X107350196Y-82861614D01*
X107350338Y-82850000D01*
X107331232Y-82716588D01*
X107275450Y-82593902D01*
X107187475Y-82491803D01*
X107074382Y-82418499D01*
X106945259Y-82379883D01*
X106879100Y-82379479D01*
X106813981Y-82379081D01*
X106813979Y-82379081D01*
X106810489Y-82379060D01*
X106807134Y-82380019D01*
X106807133Y-82380019D01*
X106684260Y-82415136D01*
X106684259Y-82415136D01*
X106680905Y-82416095D01*
X106566924Y-82488012D01*
X106477709Y-82589029D01*
X106420432Y-82711025D01*
X106399697Y-82844193D01*
X100100000Y-82844193D01*
X100100000Y-81444193D01*
X106399697Y-81444193D01*
X106400149Y-81447650D01*
X106400149Y-81447653D01*
X106416719Y-81574366D01*
X106417172Y-81577828D01*
X106418578Y-81581023D01*
X106465601Y-81687891D01*
X106471451Y-81701187D01*
X106558172Y-81804353D01*
X106670362Y-81879033D01*
X106799002Y-81919223D01*
X106802492Y-81919287D01*
X106829851Y-81919788D01*
X106933752Y-81921693D01*
X106937116Y-81920776D01*
X107060410Y-81887163D01*
X107060413Y-81887162D01*
X107063779Y-81886244D01*
X107178631Y-81815725D01*
X107192865Y-81800000D01*
X117524882Y-81800000D01*
X117543242Y-81915918D01*
X117596523Y-82020489D01*
X117679511Y-82103477D01*
X117682948Y-82105228D01*
X117682949Y-82105229D01*
X117731796Y-82130117D01*
X117784082Y-82156758D01*
X117900000Y-82175118D01*
X118015918Y-82156758D01*
X118068204Y-82130117D01*
X118117051Y-82105229D01*
X118117052Y-82105228D01*
X118120489Y-82103477D01*
X118203477Y-82020489D01*
X118256758Y-81915918D01*
X118275118Y-81800000D01*
X118256758Y-81684082D01*
X118212723Y-81597657D01*
X118205229Y-81582949D01*
X118205228Y-81582948D01*
X118203477Y-81579511D01*
X118120489Y-81496523D01*
X118117052Y-81494772D01*
X118117051Y-81494771D01*
X118029181Y-81450000D01*
X118015918Y-81443242D01*
X117900000Y-81424882D01*
X117784082Y-81443242D01*
X117770819Y-81450000D01*
X117682949Y-81494771D01*
X117682948Y-81494772D01*
X117679511Y-81496523D01*
X117596523Y-81579511D01*
X117594772Y-81582948D01*
X117594771Y-81582949D01*
X117587277Y-81597657D01*
X117543242Y-81684082D01*
X117524882Y-81800000D01*
X107192865Y-81800000D01*
X107269073Y-81715806D01*
X107327836Y-81594518D01*
X107329783Y-81582949D01*
X107349883Y-81463476D01*
X107349883Y-81463473D01*
X107350196Y-81461614D01*
X107350338Y-81450000D01*
X107331232Y-81316588D01*
X107275450Y-81193902D01*
X107187475Y-81091803D01*
X107074382Y-81018499D01*
X106945259Y-80979883D01*
X106879100Y-80979479D01*
X106813981Y-80979081D01*
X106813979Y-80979081D01*
X106810489Y-80979060D01*
X106807134Y-80980019D01*
X106807133Y-80980019D01*
X106684260Y-81015136D01*
X106684259Y-81015136D01*
X106680905Y-81016095D01*
X106566924Y-81088012D01*
X106477709Y-81189029D01*
X106420432Y-81311025D01*
X106419895Y-81314474D01*
X106402704Y-81424882D01*
X106399697Y-81444193D01*
X100100000Y-81444193D01*
X100100000Y-79850000D01*
X103749882Y-79850000D01*
X103768242Y-79965918D01*
X103821523Y-80070489D01*
X103904511Y-80153477D01*
X103907948Y-80155228D01*
X103907949Y-80155229D01*
X103948223Y-80175749D01*
X104009082Y-80206758D01*
X104125000Y-80225118D01*
X104240918Y-80206758D01*
X104301777Y-80175749D01*
X104342051Y-80155229D01*
X104342052Y-80155228D01*
X104345489Y-80153477D01*
X104428477Y-80070489D01*
X104481758Y-79965918D01*
X104496158Y-79875000D01*
X106499882Y-79875000D01*
X106518242Y-79990918D01*
X106571523Y-80095489D01*
X106654511Y-80178477D01*
X106657948Y-80180228D01*
X106657949Y-80180229D01*
X106706578Y-80205006D01*
X106759082Y-80231758D01*
X106875000Y-80250118D01*
X106990918Y-80231758D01*
X107043422Y-80205006D01*
X107092051Y-80180229D01*
X107092052Y-80180228D01*
X107095489Y-80178477D01*
X107173966Y-80100000D01*
X120524882Y-80100000D01*
X120543242Y-80215918D01*
X120596523Y-80320489D01*
X120679511Y-80403477D01*
X120682948Y-80405228D01*
X120682949Y-80405229D01*
X120731797Y-80430118D01*
X120784082Y-80456758D01*
X120900000Y-80475118D01*
X121015918Y-80456758D01*
X121068204Y-80430117D01*
X121117051Y-80405229D01*
X121117052Y-80405228D01*
X121120489Y-80403477D01*
X121203477Y-80320489D01*
X121256758Y-80215918D01*
X121275118Y-80100000D01*
X121256758Y-79984082D01*
X121203477Y-79879511D01*
X121120489Y-79796523D01*
X121117052Y-79794772D01*
X121117051Y-79794771D01*
X121047006Y-79759082D01*
X121015918Y-79743242D01*
X120900000Y-79724882D01*
X120784082Y-79743242D01*
X120752994Y-79759082D01*
X120682949Y-79794771D01*
X120682948Y-79794772D01*
X120679511Y-79796523D01*
X120596523Y-79879511D01*
X120543242Y-79984082D01*
X120524882Y-80100000D01*
X107173966Y-80100000D01*
X107178477Y-80095489D01*
X107231758Y-79990918D01*
X107250118Y-79875000D01*
X107231758Y-79759082D01*
X107178477Y-79654511D01*
X107095489Y-79571523D01*
X107092052Y-79569772D01*
X107092051Y-79569771D01*
X107042985Y-79544771D01*
X106990918Y-79518242D01*
X106875000Y-79499882D01*
X106759082Y-79518242D01*
X106707015Y-79544771D01*
X106657949Y-79569771D01*
X106657948Y-79569772D01*
X106654511Y-79571523D01*
X106571523Y-79654511D01*
X106518242Y-79759082D01*
X106499882Y-79875000D01*
X104496158Y-79875000D01*
X104500118Y-79850000D01*
X104481758Y-79734082D01*
X104428477Y-79629511D01*
X104345489Y-79546523D01*
X104342052Y-79544772D01*
X104342051Y-79544771D01*
X104255133Y-79500485D01*
X104240918Y-79493242D01*
X104125000Y-79474882D01*
X104009082Y-79493242D01*
X103994867Y-79500485D01*
X103907949Y-79544771D01*
X103907948Y-79544772D01*
X103904511Y-79546523D01*
X103821523Y-79629511D01*
X103768242Y-79734082D01*
X103749882Y-79850000D01*
X100100000Y-79850000D01*
X100100000Y-79100000D01*
X120524882Y-79100000D01*
X120543242Y-79215918D01*
X120596523Y-79320489D01*
X120679511Y-79403477D01*
X120682948Y-79405228D01*
X120682949Y-79405229D01*
X120731797Y-79430118D01*
X120784082Y-79456758D01*
X120900000Y-79475118D01*
X121015918Y-79456758D01*
X121068203Y-79430118D01*
X121117051Y-79405229D01*
X121117052Y-79405228D01*
X121120489Y-79403477D01*
X121203477Y-79320489D01*
X121256758Y-79215918D01*
X121275118Y-79100000D01*
X121256758Y-78984082D01*
X121203477Y-78879511D01*
X121120489Y-78796523D01*
X121117052Y-78794772D01*
X121117051Y-78794771D01*
X121068204Y-78769883D01*
X121015918Y-78743242D01*
X120900000Y-78724882D01*
X120784082Y-78743242D01*
X120731797Y-78769882D01*
X120682949Y-78794771D01*
X120682948Y-78794772D01*
X120679511Y-78796523D01*
X120596523Y-78879511D01*
X120543242Y-78984082D01*
X120524882Y-79100000D01*
X100100000Y-79100000D01*
X100100000Y-78350000D01*
X103749882Y-78350000D01*
X103768242Y-78465918D01*
X103821523Y-78570489D01*
X103904511Y-78653477D01*
X103907948Y-78655228D01*
X103907949Y-78655229D01*
X103956797Y-78680118D01*
X104009082Y-78706758D01*
X104125000Y-78725118D01*
X104240918Y-78706758D01*
X104293203Y-78680118D01*
X104342051Y-78655229D01*
X104342052Y-78655228D01*
X104345489Y-78653477D01*
X104428477Y-78570489D01*
X104481758Y-78465918D01*
X104500118Y-78350000D01*
X106499882Y-78350000D01*
X106518242Y-78465918D01*
X106571523Y-78570489D01*
X106654511Y-78653477D01*
X106657948Y-78655228D01*
X106657949Y-78655229D01*
X106706797Y-78680118D01*
X106759082Y-78706758D01*
X106875000Y-78725118D01*
X106990918Y-78706758D01*
X107043203Y-78680118D01*
X107092051Y-78655229D01*
X107092052Y-78655228D01*
X107095489Y-78653477D01*
X107178477Y-78570489D01*
X107231758Y-78465918D01*
X107250118Y-78350000D01*
X107231758Y-78234082D01*
X107178477Y-78129511D01*
X107148966Y-78100000D01*
X118124882Y-78100000D01*
X118143242Y-78215918D01*
X118196523Y-78320489D01*
X118279511Y-78403477D01*
X118282948Y-78405228D01*
X118282949Y-78405229D01*
X118331797Y-78430118D01*
X118384082Y-78456758D01*
X118500000Y-78475118D01*
X118615918Y-78456758D01*
X118668203Y-78430118D01*
X118717051Y-78405229D01*
X118717052Y-78405228D01*
X118720489Y-78403477D01*
X118803477Y-78320489D01*
X118856758Y-78215918D01*
X118875118Y-78100000D01*
X118856758Y-77984082D01*
X118803477Y-77879511D01*
X118720489Y-77796523D01*
X118717052Y-77794772D01*
X118717051Y-77794771D01*
X118668203Y-77769882D01*
X118615918Y-77743242D01*
X118500000Y-77724882D01*
X118384082Y-77743242D01*
X118331797Y-77769882D01*
X118282949Y-77794771D01*
X118282948Y-77794772D01*
X118279511Y-77796523D01*
X118196523Y-77879511D01*
X118143242Y-77984082D01*
X118124882Y-78100000D01*
X107148966Y-78100000D01*
X107095489Y-78046523D01*
X107092052Y-78044772D01*
X107092051Y-78044771D01*
X107043203Y-78019882D01*
X106990918Y-77993242D01*
X106875000Y-77974882D01*
X106759082Y-77993242D01*
X106706797Y-78019882D01*
X106657949Y-78044771D01*
X106657948Y-78044772D01*
X106654511Y-78046523D01*
X106571523Y-78129511D01*
X106518242Y-78234082D01*
X106499882Y-78350000D01*
X104500118Y-78350000D01*
X104481758Y-78234082D01*
X104428477Y-78129511D01*
X104345489Y-78046523D01*
X104342052Y-78044772D01*
X104342051Y-78044771D01*
X104293203Y-78019882D01*
X104240918Y-77993242D01*
X104125000Y-77974882D01*
X104009082Y-77993242D01*
X103956797Y-78019882D01*
X103907949Y-78044771D01*
X103907948Y-78044772D01*
X103904511Y-78046523D01*
X103821523Y-78129511D01*
X103768242Y-78234082D01*
X103749882Y-78350000D01*
X100100000Y-78350000D01*
X100100000Y-76850000D01*
X103749882Y-76850000D01*
X103768242Y-76965918D01*
X103821523Y-77070489D01*
X103904511Y-77153477D01*
X103907948Y-77155228D01*
X103907949Y-77155229D01*
X103956796Y-77180117D01*
X104009082Y-77206758D01*
X104125000Y-77225118D01*
X104240918Y-77206758D01*
X104293204Y-77180117D01*
X104342051Y-77155229D01*
X104342052Y-77155228D01*
X104345489Y-77153477D01*
X104428477Y-77070489D01*
X104481758Y-76965918D01*
X104500118Y-76850000D01*
X104499198Y-76844193D01*
X106399697Y-76844193D01*
X106400149Y-76847650D01*
X106400149Y-76847653D01*
X106416064Y-76969356D01*
X106417172Y-76977828D01*
X106418578Y-76981023D01*
X106469254Y-77096193D01*
X106471451Y-77101187D01*
X106558172Y-77204353D01*
X106561076Y-77206286D01*
X106561077Y-77206287D01*
X106588461Y-77224515D01*
X106670362Y-77279033D01*
X106799002Y-77319223D01*
X106802492Y-77319287D01*
X106829851Y-77319788D01*
X106933752Y-77321693D01*
X106937116Y-77320776D01*
X107060410Y-77287163D01*
X107060413Y-77287162D01*
X107063779Y-77286244D01*
X107178631Y-77215725D01*
X107269073Y-77115806D01*
X107276731Y-77100000D01*
X118124882Y-77100000D01*
X118143242Y-77215918D01*
X118196523Y-77320489D01*
X118279511Y-77403477D01*
X118282948Y-77405228D01*
X118282949Y-77405229D01*
X118331797Y-77430118D01*
X118384082Y-77456758D01*
X118500000Y-77475118D01*
X118615918Y-77456758D01*
X118668203Y-77430118D01*
X118717051Y-77405229D01*
X118717052Y-77405228D01*
X118720489Y-77403477D01*
X118803477Y-77320489D01*
X118856758Y-77215918D01*
X118875118Y-77100000D01*
X118856758Y-76984082D01*
X118803477Y-76879511D01*
X118720489Y-76796523D01*
X118717052Y-76794772D01*
X118717051Y-76794771D01*
X118668203Y-76769882D01*
X118615918Y-76743242D01*
X118500000Y-76724882D01*
X118384082Y-76743242D01*
X118331797Y-76769882D01*
X118282949Y-76794771D01*
X118282948Y-76794772D01*
X118279511Y-76796523D01*
X118196523Y-76879511D01*
X118143242Y-76984082D01*
X118124882Y-77100000D01*
X107276731Y-77100000D01*
X107327836Y-76994518D01*
X107330107Y-76981023D01*
X107349883Y-76863476D01*
X107349883Y-76863473D01*
X107350196Y-76861614D01*
X107350250Y-76857213D01*
X107350315Y-76851902D01*
X107350315Y-76851899D01*
X107350338Y-76850000D01*
X107331232Y-76716588D01*
X107275450Y-76593902D01*
X107187475Y-76491803D01*
X107162300Y-76475485D01*
X107077312Y-76420398D01*
X107077311Y-76420398D01*
X107074382Y-76418499D01*
X106945259Y-76379883D01*
X106879100Y-76379479D01*
X106813981Y-76379081D01*
X106813979Y-76379081D01*
X106810489Y-76379060D01*
X106807134Y-76380019D01*
X106807133Y-76380019D01*
X106684260Y-76415136D01*
X106684259Y-76415136D01*
X106680905Y-76416095D01*
X106566924Y-76488012D01*
X106477709Y-76589029D01*
X106420432Y-76711025D01*
X106419895Y-76714474D01*
X106406695Y-76799251D01*
X106399697Y-76844193D01*
X104499198Y-76844193D01*
X104481758Y-76734082D01*
X104428477Y-76629511D01*
X104345489Y-76546523D01*
X104342052Y-76544772D01*
X104342051Y-76544771D01*
X104293203Y-76519882D01*
X104240918Y-76493242D01*
X104125000Y-76474882D01*
X104009082Y-76493242D01*
X103956797Y-76519882D01*
X103907949Y-76544771D01*
X103907948Y-76544772D01*
X103904511Y-76546523D01*
X103821523Y-76629511D01*
X103768242Y-76734082D01*
X103749882Y-76850000D01*
X100100000Y-76850000D01*
X100100000Y-74994193D01*
X114024697Y-74994193D01*
X114025149Y-74997650D01*
X114025149Y-74997653D01*
X114041719Y-75124366D01*
X114042172Y-75127828D01*
X114096451Y-75251187D01*
X114183172Y-75354353D01*
X114295362Y-75429033D01*
X114424002Y-75469223D01*
X114427492Y-75469287D01*
X114454851Y-75469788D01*
X114558752Y-75471693D01*
X114562116Y-75470776D01*
X114685410Y-75437163D01*
X114685413Y-75437162D01*
X114688779Y-75436244D01*
X114803631Y-75365725D01*
X114894073Y-75265806D01*
X114952836Y-75144518D01*
X114955107Y-75131023D01*
X114974883Y-75013476D01*
X114974883Y-75013473D01*
X114975196Y-75011614D01*
X114975338Y-75000000D01*
X114956232Y-74866588D01*
X114900450Y-74743902D01*
X114812475Y-74641803D01*
X114806626Y-74638012D01*
X114702312Y-74570398D01*
X114702311Y-74570398D01*
X114699382Y-74568499D01*
X114570259Y-74529883D01*
X114504100Y-74529479D01*
X114438981Y-74529081D01*
X114438979Y-74529081D01*
X114435489Y-74529060D01*
X114432134Y-74530019D01*
X114432133Y-74530019D01*
X114309260Y-74565136D01*
X114309259Y-74565136D01*
X114305905Y-74566095D01*
X114191924Y-74638012D01*
X114102709Y-74739029D01*
X114045432Y-74861025D01*
X114024697Y-74994193D01*
X100100000Y-74994193D01*
X100100000Y-74194193D01*
X118024697Y-74194193D01*
X118025149Y-74197650D01*
X118025149Y-74197653D01*
X118041719Y-74324366D01*
X118042172Y-74327828D01*
X118096451Y-74451187D01*
X118183172Y-74554353D01*
X118186076Y-74556286D01*
X118186077Y-74556287D01*
X118202921Y-74567499D01*
X118295362Y-74629033D01*
X118424002Y-74669223D01*
X118427492Y-74669287D01*
X118454851Y-74669788D01*
X118558752Y-74671693D01*
X118562116Y-74670776D01*
X118685410Y-74637163D01*
X118685413Y-74637162D01*
X118688779Y-74636244D01*
X118803631Y-74565725D01*
X118894073Y-74465806D01*
X118952836Y-74344518D01*
X118955107Y-74331023D01*
X118974883Y-74213476D01*
X118974883Y-74213473D01*
X118975196Y-74211614D01*
X118975338Y-74200000D01*
X118956232Y-74066588D01*
X118900450Y-73943902D01*
X118812475Y-73841803D01*
X118699382Y-73768499D01*
X118570259Y-73729883D01*
X118504100Y-73729479D01*
X118438981Y-73729081D01*
X118438979Y-73729081D01*
X118435489Y-73729060D01*
X118432134Y-73730019D01*
X118432133Y-73730019D01*
X118309260Y-73765136D01*
X118309259Y-73765136D01*
X118305905Y-73766095D01*
X118191924Y-73838012D01*
X118102709Y-73939029D01*
X118045432Y-74061025D01*
X118024697Y-74194193D01*
X100100000Y-74194193D01*
X100100000Y-73594193D01*
X103799697Y-73594193D01*
X103800149Y-73597650D01*
X103800149Y-73597653D01*
X103816719Y-73724366D01*
X103817172Y-73727828D01*
X103871451Y-73851187D01*
X103958172Y-73954353D01*
X104070362Y-74029033D01*
X104199002Y-74069223D01*
X104202492Y-74069287D01*
X104229851Y-74069788D01*
X104333752Y-74071693D01*
X104339797Y-74070045D01*
X104460410Y-74037163D01*
X104460413Y-74037162D01*
X104463779Y-74036244D01*
X104578631Y-73965725D01*
X104669073Y-73865806D01*
X104727836Y-73744518D01*
X104730107Y-73731023D01*
X104749883Y-73613476D01*
X104749883Y-73613473D01*
X104750196Y-73611614D01*
X104750338Y-73600000D01*
X104749506Y-73594193D01*
X106399697Y-73594193D01*
X106400149Y-73597650D01*
X106400149Y-73597653D01*
X106416719Y-73724366D01*
X106417172Y-73727828D01*
X106471451Y-73851187D01*
X106558172Y-73954353D01*
X106670362Y-74029033D01*
X106799002Y-74069223D01*
X106802492Y-74069287D01*
X106829851Y-74069788D01*
X106933752Y-74071693D01*
X106939797Y-74070045D01*
X107060410Y-74037163D01*
X107060413Y-74037162D01*
X107063779Y-74036244D01*
X107178631Y-73965725D01*
X107269073Y-73865806D01*
X107327836Y-73744518D01*
X107330107Y-73731023D01*
X107349883Y-73613476D01*
X107349883Y-73613473D01*
X107350196Y-73611614D01*
X107350338Y-73600000D01*
X107331232Y-73466588D01*
X107275450Y-73343902D01*
X107187475Y-73241803D01*
X107170844Y-73231023D01*
X107077312Y-73170398D01*
X107077311Y-73170398D01*
X107074382Y-73168499D01*
X107002247Y-73146926D01*
X106973164Y-73123248D01*
X106970187Y-73094193D01*
X118924697Y-73094193D01*
X118925149Y-73097650D01*
X118925149Y-73097653D01*
X118934662Y-73170398D01*
X118942172Y-73227828D01*
X118943578Y-73231023D01*
X118993246Y-73343902D01*
X118996451Y-73351187D01*
X119083172Y-73454353D01*
X119086076Y-73456286D01*
X119086077Y-73456287D01*
X119138966Y-73491493D01*
X119195362Y-73529033D01*
X119324002Y-73569223D01*
X119327492Y-73569287D01*
X119354851Y-73569788D01*
X119458752Y-73571693D01*
X119462116Y-73570776D01*
X119585410Y-73537163D01*
X119585413Y-73537162D01*
X119588779Y-73536244D01*
X119703631Y-73465725D01*
X119794073Y-73365806D01*
X119852836Y-73244518D01*
X119853491Y-73240628D01*
X119874883Y-73113476D01*
X119874883Y-73113473D01*
X119875196Y-73111614D01*
X119875338Y-73100000D01*
X119856232Y-72966588D01*
X119800450Y-72843902D01*
X119712475Y-72741803D01*
X119695844Y-72731023D01*
X119602312Y-72670398D01*
X119602311Y-72670398D01*
X119599382Y-72668499D01*
X119470259Y-72629883D01*
X119404100Y-72629479D01*
X119338981Y-72629081D01*
X119338979Y-72629081D01*
X119335489Y-72629060D01*
X119332134Y-72630019D01*
X119332133Y-72630019D01*
X119209260Y-72665136D01*
X119209259Y-72665136D01*
X119205905Y-72666095D01*
X119091924Y-72738012D01*
X119002709Y-72839029D01*
X118945432Y-72961025D01*
X118944895Y-72964474D01*
X118934005Y-73034416D01*
X118924697Y-73094193D01*
X106970187Y-73094193D01*
X106969341Y-73085940D01*
X106993019Y-73056857D01*
X107003397Y-73052706D01*
X107063779Y-73036244D01*
X107178631Y-72965725D01*
X107269073Y-72865806D01*
X107327836Y-72744518D01*
X107328491Y-72740628D01*
X107349883Y-72613476D01*
X107349883Y-72613473D01*
X107350196Y-72611614D01*
X107350338Y-72600000D01*
X107331232Y-72466588D01*
X107275450Y-72343902D01*
X107187475Y-72241803D01*
X107178755Y-72236151D01*
X107077312Y-72170398D01*
X107077311Y-72170398D01*
X107074382Y-72168499D01*
X106945259Y-72129883D01*
X106879100Y-72129479D01*
X106813981Y-72129081D01*
X106813979Y-72129081D01*
X106810489Y-72129060D01*
X106807134Y-72130019D01*
X106807133Y-72130019D01*
X106684260Y-72165136D01*
X106684259Y-72165136D01*
X106680905Y-72166095D01*
X106566924Y-72238012D01*
X106477709Y-72339029D01*
X106420432Y-72461025D01*
X106419895Y-72464474D01*
X106402715Y-72574812D01*
X106399697Y-72594193D01*
X106400149Y-72597650D01*
X106400149Y-72597653D01*
X106409662Y-72670398D01*
X106417172Y-72727828D01*
X106418578Y-72731023D01*
X106468246Y-72843902D01*
X106471451Y-72851187D01*
X106558172Y-72954353D01*
X106561076Y-72956286D01*
X106561077Y-72956287D01*
X106613966Y-72991493D01*
X106670362Y-73029033D01*
X106673694Y-73030074D01*
X106748122Y-73053327D01*
X106776914Y-73077359D01*
X106780281Y-73114710D01*
X106756249Y-73143502D01*
X106746975Y-73147212D01*
X106684260Y-73165136D01*
X106684259Y-73165136D01*
X106680905Y-73166095D01*
X106566924Y-73238012D01*
X106477709Y-73339029D01*
X106420432Y-73461025D01*
X106419895Y-73464474D01*
X106409005Y-73534416D01*
X106399697Y-73594193D01*
X104749506Y-73594193D01*
X104731232Y-73466588D01*
X104675450Y-73343902D01*
X104587475Y-73241803D01*
X104570844Y-73231023D01*
X104477312Y-73170398D01*
X104477311Y-73170398D01*
X104474382Y-73168499D01*
X104402247Y-73146926D01*
X104373164Y-73123248D01*
X104369341Y-73085940D01*
X104393019Y-73056857D01*
X104403397Y-73052706D01*
X104463779Y-73036244D01*
X104578631Y-72965725D01*
X104669073Y-72865806D01*
X104727836Y-72744518D01*
X104728491Y-72740628D01*
X104749883Y-72613476D01*
X104749883Y-72613473D01*
X104750196Y-72611614D01*
X104750338Y-72600000D01*
X104731232Y-72466588D01*
X104675450Y-72343902D01*
X104587475Y-72241803D01*
X104578755Y-72236151D01*
X104477312Y-72170398D01*
X104477311Y-72170398D01*
X104474382Y-72168499D01*
X104345259Y-72129883D01*
X104279100Y-72129479D01*
X104213981Y-72129081D01*
X104213979Y-72129081D01*
X104210489Y-72129060D01*
X104207134Y-72130019D01*
X104207133Y-72130019D01*
X104084260Y-72165136D01*
X104084259Y-72165136D01*
X104080905Y-72166095D01*
X103966924Y-72238012D01*
X103877709Y-72339029D01*
X103820432Y-72461025D01*
X103819895Y-72464474D01*
X103802715Y-72574812D01*
X103799697Y-72594193D01*
X103800149Y-72597650D01*
X103800149Y-72597653D01*
X103809662Y-72670398D01*
X103817172Y-72727828D01*
X103818578Y-72731023D01*
X103868246Y-72843902D01*
X103871451Y-72851187D01*
X103958172Y-72954353D01*
X103961076Y-72956286D01*
X103961077Y-72956287D01*
X104013966Y-72991493D01*
X104070362Y-73029033D01*
X104073694Y-73030074D01*
X104148122Y-73053327D01*
X104176914Y-73077359D01*
X104180281Y-73114710D01*
X104156249Y-73143502D01*
X104146975Y-73147212D01*
X104084260Y-73165136D01*
X104084259Y-73165136D01*
X104080905Y-73166095D01*
X103966924Y-73238012D01*
X103877709Y-73339029D01*
X103820432Y-73461025D01*
X103819895Y-73464474D01*
X103809005Y-73534416D01*
X103799697Y-73594193D01*
X100100000Y-73594193D01*
X100100000Y-71592631D01*
X109769443Y-71592631D01*
X109769660Y-71595016D01*
X109769660Y-71595021D01*
X109773573Y-71638012D01*
X109788114Y-71797797D01*
X109809378Y-71870045D01*
X109844903Y-71990748D01*
X109846280Y-71995428D01*
X109853404Y-72009055D01*
X109936477Y-72167957D01*
X109941726Y-72177998D01*
X109949903Y-72188168D01*
X110069315Y-72336688D01*
X110069318Y-72336691D01*
X110070815Y-72338553D01*
X110072649Y-72340092D01*
X110072650Y-72340093D01*
X110091949Y-72356287D01*
X110228630Y-72470976D01*
X110230731Y-72472131D01*
X110407066Y-72569072D01*
X110407068Y-72569073D01*
X110409162Y-72570224D01*
X110605532Y-72632516D01*
X110669875Y-72639733D01*
X110764505Y-72650348D01*
X110764513Y-72650348D01*
X110765864Y-72650500D01*
X110876841Y-72650500D01*
X110878021Y-72650384D01*
X110878027Y-72650384D01*
X110935823Y-72644717D01*
X111030030Y-72635480D01*
X111032312Y-72634791D01*
X111032317Y-72634790D01*
X111141245Y-72601902D01*
X111227251Y-72575935D01*
X111242507Y-72567823D01*
X111407038Y-72480342D01*
X111407042Y-72480339D01*
X111409151Y-72479218D01*
X111568800Y-72349011D01*
X111700118Y-72190275D01*
X111795713Y-72013476D01*
X111796965Y-72011160D01*
X111796966Y-72011159D01*
X111798103Y-72009055D01*
X111802704Y-71994193D01*
X118024697Y-71994193D01*
X118025149Y-71997650D01*
X118025149Y-71997653D01*
X118041719Y-72124366D01*
X118042172Y-72127828D01*
X118096451Y-72251187D01*
X118183172Y-72354353D01*
X118295362Y-72429033D01*
X118424002Y-72469223D01*
X118427492Y-72469287D01*
X118454851Y-72469788D01*
X118558752Y-72471693D01*
X118564797Y-72470045D01*
X118685410Y-72437163D01*
X118685413Y-72437162D01*
X118688779Y-72436244D01*
X118803631Y-72365725D01*
X118894073Y-72265806D01*
X118952836Y-72144518D01*
X118955107Y-72131023D01*
X118974883Y-72013476D01*
X118974883Y-72013473D01*
X118975196Y-72011614D01*
X118975338Y-72000000D01*
X118956232Y-71866588D01*
X118900450Y-71743902D01*
X118812475Y-71641803D01*
X118763027Y-71609752D01*
X118702312Y-71570398D01*
X118702311Y-71570398D01*
X118699382Y-71568499D01*
X118570259Y-71529883D01*
X118504100Y-71529479D01*
X118438981Y-71529081D01*
X118438979Y-71529081D01*
X118435489Y-71529060D01*
X118432134Y-71530019D01*
X118432133Y-71530019D01*
X118309260Y-71565136D01*
X118309259Y-71565136D01*
X118305905Y-71566095D01*
X118191924Y-71638012D01*
X118102709Y-71739029D01*
X118045432Y-71861025D01*
X118024697Y-71994193D01*
X111802704Y-71994193D01*
X111859023Y-71812254D01*
X111860301Y-71800099D01*
X111880307Y-71609752D01*
X111880307Y-71609747D01*
X111880557Y-71607369D01*
X111880340Y-71604984D01*
X111880340Y-71604979D01*
X111867890Y-71468182D01*
X111861886Y-71402203D01*
X111803720Y-71204572D01*
X111708274Y-71022002D01*
X111685915Y-70994193D01*
X114024697Y-70994193D01*
X114025149Y-70997650D01*
X114025149Y-70997653D01*
X114028090Y-71020142D01*
X114042172Y-71127828D01*
X114096451Y-71251187D01*
X114183172Y-71354353D01*
X114186076Y-71356286D01*
X114186077Y-71356287D01*
X114236908Y-71390123D01*
X114295362Y-71429033D01*
X114424002Y-71469223D01*
X114427492Y-71469287D01*
X114454851Y-71469788D01*
X114558752Y-71471693D01*
X114562116Y-71470776D01*
X114685410Y-71437163D01*
X114685413Y-71437162D01*
X114688779Y-71436244D01*
X114803631Y-71365725D01*
X114894073Y-71265806D01*
X114952836Y-71144518D01*
X114955107Y-71131023D01*
X114974883Y-71013476D01*
X114974883Y-71013473D01*
X114975196Y-71011614D01*
X114975338Y-71000000D01*
X114956232Y-70866588D01*
X114900450Y-70743902D01*
X114812475Y-70641803D01*
X114792803Y-70629052D01*
X114702312Y-70570398D01*
X114702311Y-70570398D01*
X114699382Y-70568499D01*
X114570259Y-70529883D01*
X114504100Y-70529479D01*
X114438981Y-70529081D01*
X114438979Y-70529081D01*
X114435489Y-70529060D01*
X114432134Y-70530019D01*
X114432133Y-70530019D01*
X114309260Y-70565136D01*
X114309259Y-70565136D01*
X114305905Y-70566095D01*
X114191924Y-70638012D01*
X114102709Y-70739029D01*
X114045432Y-70861025D01*
X114024697Y-70994193D01*
X111685915Y-70994193D01*
X111586098Y-70870045D01*
X111580685Y-70863312D01*
X111580682Y-70863309D01*
X111579185Y-70861447D01*
X111421370Y-70729024D01*
X111267525Y-70644447D01*
X111242934Y-70630928D01*
X111242932Y-70630927D01*
X111240838Y-70629776D01*
X111044468Y-70567484D01*
X110980125Y-70560267D01*
X110885495Y-70549652D01*
X110885487Y-70549652D01*
X110884136Y-70549500D01*
X110773159Y-70549500D01*
X110771979Y-70549616D01*
X110771973Y-70549616D01*
X110714177Y-70555283D01*
X110619970Y-70564520D01*
X110617688Y-70565209D01*
X110617683Y-70565210D01*
X110511146Y-70597376D01*
X110422749Y-70624065D01*
X110420637Y-70625188D01*
X110242962Y-70719658D01*
X110242958Y-70719661D01*
X110240849Y-70720782D01*
X110081200Y-70850989D01*
X109949882Y-71009725D01*
X109851897Y-71190945D01*
X109790977Y-71387746D01*
X109790727Y-71390121D01*
X109790727Y-71390123D01*
X109771780Y-71570398D01*
X109769443Y-71592631D01*
X100100000Y-71592631D01*
X100100000Y-52890101D01*
X100474500Y-52890101D01*
X100474501Y-57409898D01*
X100480331Y-57439213D01*
X100502543Y-57472457D01*
X100535787Y-57494669D01*
X100540521Y-57495611D01*
X100540522Y-57495611D01*
X100546550Y-57496810D01*
X100565101Y-57500500D01*
X100567511Y-57500500D01*
X102827816Y-57500499D01*
X105084898Y-57500499D01*
X105114213Y-57494669D01*
X105147457Y-57472457D01*
X105169669Y-57439213D01*
X105175500Y-57409899D01*
X105175499Y-52890102D01*
X105175499Y-52890101D01*
X124674500Y-52890101D01*
X124674501Y-57409898D01*
X124680331Y-57439213D01*
X124702543Y-57472457D01*
X124735787Y-57494669D01*
X124740521Y-57495611D01*
X124740522Y-57495611D01*
X124746550Y-57496810D01*
X124765101Y-57500500D01*
X124767511Y-57500500D01*
X127027816Y-57500499D01*
X129284898Y-57500499D01*
X129314213Y-57494669D01*
X129347457Y-57472457D01*
X129369669Y-57439213D01*
X129375500Y-57409899D01*
X129375499Y-52890102D01*
X129369669Y-52860787D01*
X129347457Y-52827543D01*
X129314213Y-52805331D01*
X129309479Y-52804389D01*
X129309478Y-52804389D01*
X129303450Y-52803190D01*
X129284899Y-52799500D01*
X129282489Y-52799500D01*
X127022184Y-52799501D01*
X124765102Y-52799501D01*
X124735787Y-52805331D01*
X124702543Y-52827543D01*
X124680331Y-52860787D01*
X124674500Y-52890101D01*
X105175499Y-52890101D01*
X105169669Y-52860787D01*
X105147457Y-52827543D01*
X105114213Y-52805331D01*
X105109479Y-52804389D01*
X105109478Y-52804389D01*
X105103450Y-52803190D01*
X105084899Y-52799500D01*
X105082489Y-52799500D01*
X102822184Y-52799501D01*
X100565102Y-52799501D01*
X100535787Y-52805331D01*
X100502543Y-52827543D01*
X100480331Y-52860787D01*
X100474500Y-52890101D01*
X100100000Y-52890101D01*
X100100000Y-52549000D01*
X100114352Y-52514352D01*
X100149000Y-52500000D01*
X129701000Y-52500000D01*
X129735648Y-52514352D01*
G37*
%TD.AperFunction*%
%TD*%
M02*
