%TF.GenerationSoftware,KiCad,Pcbnew,(6.0.1)*%
%TF.CreationDate,2022-01-21T21:00:35+01:00*%
%TF.ProjectId,apu-m2,6170752d-6d32-42e6-9b69-6361645f7063,rev?*%
%TF.SameCoordinates,Original*%
%TF.FileFunction,Paste,Top*%
%TF.FilePolarity,Positive*%
%FSLAX46Y46*%
G04 Gerber Fmt 4.6, Leading zero omitted, Abs format (unit mm)*
G04 Created by KiCad (PCBNEW (6.0.1)) date 2022-01-21 21:00:35*
%MOMM*%
%LPD*%
G01*
G04 APERTURE LIST*
G04 Aperture macros list*
%AMRoundRect*
0 Rectangle with rounded corners*
0 $1 Rounding radius*
0 $2 $3 $4 $5 $6 $7 $8 $9 X,Y pos of 4 corners*
0 Add a 4 corners polygon primitive as box body*
4,1,4,$2,$3,$4,$5,$6,$7,$8,$9,$2,$3,0*
0 Add four circle primitives for the rounded corners*
1,1,$1+$1,$2,$3*
1,1,$1+$1,$4,$5*
1,1,$1+$1,$6,$7*
1,1,$1+$1,$8,$9*
0 Add four rect primitives between the rounded corners*
20,1,$1+$1,$2,$3,$4,$5,0*
20,1,$1+$1,$4,$5,$6,$7,0*
20,1,$1+$1,$6,$7,$8,$9,0*
20,1,$1+$1,$8,$9,$2,$3,0*%
G04 Aperture macros list end*
%ADD10RoundRect,0.140000X-0.140000X-0.170000X0.140000X-0.170000X0.140000X0.170000X-0.140000X0.170000X0*%
%ADD11RoundRect,0.140000X-0.170000X0.140000X-0.170000X-0.140000X0.170000X-0.140000X0.170000X0.140000X0*%
%ADD12RoundRect,0.135000X0.135000X0.185000X-0.135000X0.185000X-0.135000X-0.185000X0.135000X-0.185000X0*%
%ADD13RoundRect,0.135000X-0.185000X0.135000X-0.185000X-0.135000X0.185000X-0.135000X0.185000X0.135000X0*%
%ADD14RoundRect,0.140000X0.170000X-0.140000X0.170000X0.140000X-0.170000X0.140000X-0.170000X-0.140000X0*%
%ADD15RoundRect,0.250000X-0.250000X-0.475000X0.250000X-0.475000X0.250000X0.475000X-0.250000X0.475000X0*%
%ADD16R,0.600000X2.330000*%
%ADD17R,1.550000X0.300000*%
%ADD18R,2.750000X1.200000*%
G04 APERTURE END LIST*
D10*
%TO.C,C1*%
X119320000Y-80100000D03*
X120280000Y-80100000D03*
%TD*%
D11*
%TO.C,C8*%
X115300000Y-74020000D03*
X115300000Y-74980000D03*
%TD*%
D12*
%TO.C,R7*%
X117810000Y-77100000D03*
X116790000Y-77100000D03*
%TD*%
%TO.C,R6*%
X117810000Y-78100000D03*
X116790000Y-78100000D03*
%TD*%
%TO.C,R5*%
X120310000Y-79100000D03*
X119290000Y-79100000D03*
%TD*%
D13*
%TO.C,R4*%
X117900000Y-80090000D03*
X117900000Y-81110000D03*
%TD*%
D11*
%TO.C,C7*%
X115300000Y-90720000D03*
X115300000Y-91680000D03*
%TD*%
D14*
%TO.C,C6*%
X115300000Y-86180000D03*
X115300000Y-85220000D03*
%TD*%
%TO.C,C5*%
X115300000Y-71980000D03*
X115300000Y-71020000D03*
%TD*%
D15*
%TO.C,C4*%
X116550000Y-87100000D03*
X118450000Y-87100000D03*
%TD*%
%TO.C,C3*%
X116600000Y-73100000D03*
X118500000Y-73100000D03*
%TD*%
%TO.C,C2*%
X116600000Y-90000000D03*
X118500000Y-90000000D03*
%TD*%
D12*
%TO.C,R3*%
X120310000Y-77100000D03*
X119290000Y-77100000D03*
%TD*%
%TO.C,R2*%
X120305000Y-78100000D03*
X119285000Y-78100000D03*
%TD*%
D16*
%TO.C,J1*%
X103125000Y-101815000D03*
X103925000Y-101815000D03*
X104725000Y-101815000D03*
X105525000Y-101815000D03*
X106325000Y-101815000D03*
X107125000Y-101815000D03*
X107925000Y-101815000D03*
X108725000Y-101815000D03*
X112725000Y-101815000D03*
X113525000Y-101815000D03*
X114325000Y-101815000D03*
X115125000Y-101815000D03*
X115925000Y-101815000D03*
X116725000Y-101815000D03*
X117525000Y-101815000D03*
X118325000Y-101815000D03*
X119125000Y-101815000D03*
X119925000Y-101815000D03*
X120725000Y-101815000D03*
X121525000Y-101815000D03*
X122325000Y-101815000D03*
X123125000Y-101815000D03*
X123925000Y-101815000D03*
X124725000Y-101815000D03*
X125525000Y-101815000D03*
X126325000Y-101815000D03*
%TD*%
D17*
%TO.C,J2*%
X105600000Y-90850000D03*
X113050000Y-90600000D03*
X105600000Y-90350000D03*
X113050000Y-90100000D03*
X105600000Y-89850000D03*
X113050000Y-89600000D03*
X105600000Y-89350000D03*
X113050000Y-89100000D03*
X105600000Y-88850000D03*
X113050000Y-88600000D03*
X105600000Y-88350000D03*
X113050000Y-88100000D03*
X105600000Y-87850000D03*
X113050000Y-87600000D03*
X105600000Y-87350000D03*
X113050000Y-87100000D03*
X105600000Y-86850000D03*
X113050000Y-86600000D03*
X105600000Y-86350000D03*
X113050000Y-86100000D03*
X105600000Y-85850000D03*
X113050000Y-85600000D03*
X105600000Y-85350000D03*
X113050000Y-85100000D03*
X105600000Y-84850000D03*
X113050000Y-84600000D03*
X105600000Y-84350000D03*
X113050000Y-84100000D03*
X105600000Y-83850000D03*
X113050000Y-83600000D03*
X105600000Y-83350000D03*
X113050000Y-83100000D03*
X105600000Y-82850000D03*
X113050000Y-82600000D03*
X105600000Y-82350000D03*
X113050000Y-82100000D03*
X105600000Y-81850000D03*
X113050000Y-81600000D03*
X105600000Y-81350000D03*
X113050000Y-81100000D03*
X105600000Y-80850000D03*
X113050000Y-80600000D03*
X105600000Y-80350000D03*
X113050000Y-80100000D03*
X105600000Y-79850000D03*
X113050000Y-79600000D03*
X105600000Y-79350000D03*
X113050000Y-79100000D03*
X105600000Y-78850000D03*
X113050000Y-78600000D03*
X105600000Y-78350000D03*
X113050000Y-78100000D03*
X105600000Y-77850000D03*
X113050000Y-77600000D03*
X105600000Y-77350000D03*
X113050000Y-77100000D03*
X105600000Y-76850000D03*
X113050000Y-76600000D03*
X105600000Y-76350000D03*
X113050000Y-76100000D03*
X105600000Y-75850000D03*
X113050000Y-75600000D03*
X105600000Y-75350000D03*
X113050000Y-75100000D03*
X105600000Y-74850000D03*
X113050000Y-74600000D03*
X105600000Y-74350000D03*
X113050000Y-74100000D03*
X105600000Y-73850000D03*
X113050000Y-73600000D03*
X105600000Y-73350000D03*
X113050000Y-73100000D03*
X105600000Y-72850000D03*
X113050000Y-72600000D03*
X105600000Y-72350000D03*
D18*
X106325000Y-91950000D03*
X106325000Y-71250000D03*
%TD*%
D12*
%TO.C,R1*%
X120310000Y-81100000D03*
X119290000Y-81100000D03*
%TD*%
M02*
