M48
; DRILL file {KiCad (6.0.1)} date Fri 21 Jan 2022 21:00:32 CET
; FORMAT={-:-/ absolute / inch / decimal}
; #@! TF.CreationDate,2022-01-21T21:00:32+01:00
; #@! TF.GenerationSoftware,Kicad,Pcbnew,(6.0.1)
; #@! TF.FileFunction,Plated,1,4,PTH
FMAT,2
INCH
; #@! TA.AperFunction,Plated,PTH,ViaDrill
T1C0.0079
; #@! TA.AperFunction,Plated,PTH,ViaDrill
T2C0.0157
; #@! TA.AperFunction,Plated,PTH,ComponentDrill
T3C0.1024
%
G90
G05
T1
X4.0364Y-3.9291
X4.0994Y-3.0256
X4.0994Y-3.0846
X4.0994Y-3.1437
X4.1073Y-3.9488
X4.1545Y-3.9291
X4.186Y-3.9488
X4.2077Y-3.0846
X4.2077Y-3.1447
X4.2805Y-3.9488
X4.4537Y-3.9488
X4.501Y-3.9488
X4.5797Y-3.9488
X4.6033Y-3.9272
X4.627Y-3.9488
X4.6417Y-3.2205
X4.6654Y-3.0354
X4.6654Y-3.0748
X4.7136Y-3.9232
X4.7215Y-3.9488
X4.753Y-3.9488
X4.7598Y-3.0354
X4.7598Y-3.0748
X4.7598Y-3.1142
X4.7598Y-3.1535
X4.7598Y-3.1929
X4.8474Y-3.9488
X4.9577Y-3.9488
T2
X4.0758Y-3.9291
X4.1053Y-2.8583
X4.1053Y-2.8976
X4.1053Y-3.5472
X4.2077Y-2.8583
X4.2077Y-2.8976
X4.2077Y-3.0256
X4.2077Y-3.2067
X4.2077Y-3.2618
X4.2077Y-3.3209
X4.2077Y-3.3799
X4.2077Y-3.439
X4.2077Y-3.498
X4.2077Y-3.5472
X4.3986Y-2.8681
X4.3986Y-2.9075
X4.3986Y-3.4094
X4.3986Y-3.4488
X4.3986Y-3.4882
X4.3986Y-3.5276
X4.3986Y-3.5669
X4.501Y-2.8681
X4.501Y-2.9075
X4.501Y-3.4094
X4.501Y-3.4488
X4.501Y-3.4882
X4.501Y-3.5276
X4.501Y-3.5669
X4.5075Y-3.3543
X4.5075Y-3.6102
X4.5079Y-2.7953
X4.5079Y-2.9528
X4.5738Y-3.8996
X4.6496Y-3.4724
X4.6654Y-2.8346
X4.6654Y-2.9213
X4.6654Y-3.3858
X4.6654Y-3.5866
X4.6811Y-3.5
X4.7008Y-2.878
X4.7008Y-3.4291
X4.7008Y-3.5433
X4.753Y-3.9134
X4.8002Y-3.9134
X4.8474Y-3.9134
X4.9892Y-3.9134
T3
X4.0482Y-2.1713
X5.001Y-2.1713
T0
M30
