%TF.GenerationSoftware,KiCad,Pcbnew,6.0.0*%
%TF.CreationDate,2022-01-07T19:15:51+01:00*%
%TF.ProjectId,apu-m2-holder,6170752d-6d32-42d6-986f-6c6465722e6b,rev?*%
%TF.SameCoordinates,Original*%
%TF.FileFunction,Legend,Top*%
%TF.FilePolarity,Positive*%
%FSLAX46Y46*%
G04 Gerber Fmt 4.6, Leading zero omitted, Abs format (unit mm)*
G04 Created by KiCad (PCBNEW 6.0.0) date 2022-01-07 19:15:51*
%MOMM*%
%LPD*%
G01*
G04 APERTURE LIST*
%ADD10C,0.150000*%
G04 APERTURE END LIST*
D10*
X121591666Y-55502619D02*
X121591666Y-56026428D01*
X121639285Y-56121666D01*
X121734523Y-56169285D01*
X121925000Y-56169285D01*
X122020238Y-56121666D01*
X121591666Y-55550238D02*
X121686904Y-55502619D01*
X121925000Y-55502619D01*
X122020238Y-55550238D01*
X122067857Y-55645476D01*
X122067857Y-55740714D01*
X122020238Y-55835952D01*
X121925000Y-55883571D01*
X121686904Y-55883571D01*
X121591666Y-55931190D01*
X121115476Y-56169285D02*
X121115476Y-55169285D01*
X121115476Y-56121666D02*
X121020238Y-56169285D01*
X120829761Y-56169285D01*
X120734523Y-56121666D01*
X120686904Y-56074047D01*
X120639285Y-55978809D01*
X120639285Y-55693095D01*
X120686904Y-55597857D01*
X120734523Y-55550238D01*
X120829761Y-55502619D01*
X121020238Y-55502619D01*
X121115476Y-55550238D01*
X119782142Y-56169285D02*
X119782142Y-55502619D01*
X120210714Y-56169285D02*
X120210714Y-55645476D01*
X120163095Y-55550238D01*
X120067857Y-55502619D01*
X119925000Y-55502619D01*
X119829761Y-55550238D01*
X119782142Y-55597857D01*
X119305952Y-55883571D02*
X118544047Y-55883571D01*
X118067857Y-55502619D02*
X118067857Y-56169285D01*
X118067857Y-56074047D02*
X118020238Y-56121666D01*
X117925000Y-56169285D01*
X117782142Y-56169285D01*
X117686904Y-56121666D01*
X117639285Y-56026428D01*
X117639285Y-55502619D01*
X117639285Y-56026428D02*
X117591666Y-56121666D01*
X117496428Y-56169285D01*
X117353571Y-56169285D01*
X117258333Y-56121666D01*
X117210714Y-56026428D01*
X117210714Y-55502619D01*
X116782142Y-56407380D02*
X116734523Y-56455000D01*
X116639285Y-56502619D01*
X116401190Y-56502619D01*
X116305952Y-56455000D01*
X116258333Y-56407380D01*
X116210714Y-56312142D01*
X116210714Y-56216904D01*
X116258333Y-56074047D01*
X116829761Y-55502619D01*
X116210714Y-55502619D01*
X115782142Y-55883571D02*
X115020238Y-55883571D01*
X114544047Y-55502619D02*
X114544047Y-56502619D01*
X114115476Y-55502619D02*
X114115476Y-56026428D01*
X114163095Y-56121666D01*
X114258333Y-56169285D01*
X114401190Y-56169285D01*
X114496428Y-56121666D01*
X114544047Y-56074047D01*
X113496428Y-55502619D02*
X113591666Y-55550238D01*
X113639285Y-55597857D01*
X113686904Y-55693095D01*
X113686904Y-55978809D01*
X113639285Y-56074047D01*
X113591666Y-56121666D01*
X113496428Y-56169285D01*
X113353571Y-56169285D01*
X113258333Y-56121666D01*
X113210714Y-56074047D01*
X113163095Y-55978809D01*
X113163095Y-55693095D01*
X113210714Y-55597857D01*
X113258333Y-55550238D01*
X113353571Y-55502619D01*
X113496428Y-55502619D01*
X112591666Y-55502619D02*
X112686904Y-55550238D01*
X112734523Y-55645476D01*
X112734523Y-56502619D01*
X111782142Y-55502619D02*
X111782142Y-56502619D01*
X111782142Y-55550238D02*
X111877380Y-55502619D01*
X112067857Y-55502619D01*
X112163095Y-55550238D01*
X112210714Y-55597857D01*
X112258333Y-55693095D01*
X112258333Y-55978809D01*
X112210714Y-56074047D01*
X112163095Y-56121666D01*
X112067857Y-56169285D01*
X111877380Y-56169285D01*
X111782142Y-56121666D01*
X110925000Y-55550238D02*
X111020238Y-55502619D01*
X111210714Y-55502619D01*
X111305952Y-55550238D01*
X111353571Y-55645476D01*
X111353571Y-56026428D01*
X111305952Y-56121666D01*
X111210714Y-56169285D01*
X111020238Y-56169285D01*
X110925000Y-56121666D01*
X110877380Y-56026428D01*
X110877380Y-55931190D01*
X111353571Y-55835952D01*
X110448809Y-55502619D02*
X110448809Y-56169285D01*
X110448809Y-55978809D02*
X110401190Y-56074047D01*
X110353571Y-56121666D01*
X110258333Y-56169285D01*
X110163095Y-56169285D01*
X109163095Y-56169285D02*
X108925000Y-55502619D01*
X108686904Y-56169285D01*
X107782142Y-55502619D02*
X108353571Y-55502619D01*
X108067857Y-55502619D02*
X108067857Y-56502619D01*
X108163095Y-56359761D01*
X108258333Y-56264523D01*
X108353571Y-56216904D01*
X119782142Y-54797380D02*
X119734523Y-54845000D01*
X119639285Y-54892619D01*
X119401190Y-54892619D01*
X119305952Y-54845000D01*
X119258333Y-54797380D01*
X119210714Y-54702142D01*
X119210714Y-54606904D01*
X119258333Y-54464047D01*
X119829761Y-53892619D01*
X119210714Y-53892619D01*
X118591666Y-54892619D02*
X118496428Y-54892619D01*
X118401190Y-54845000D01*
X118353571Y-54797380D01*
X118305952Y-54702142D01*
X118258333Y-54511666D01*
X118258333Y-54273571D01*
X118305952Y-54083095D01*
X118353571Y-53987857D01*
X118401190Y-53940238D01*
X118496428Y-53892619D01*
X118591666Y-53892619D01*
X118686904Y-53940238D01*
X118734523Y-53987857D01*
X118782142Y-54083095D01*
X118829761Y-54273571D01*
X118829761Y-54511666D01*
X118782142Y-54702142D01*
X118734523Y-54797380D01*
X118686904Y-54845000D01*
X118591666Y-54892619D01*
X117877380Y-54797380D02*
X117829761Y-54845000D01*
X117734523Y-54892619D01*
X117496428Y-54892619D01*
X117401190Y-54845000D01*
X117353571Y-54797380D01*
X117305952Y-54702142D01*
X117305952Y-54606904D01*
X117353571Y-54464047D01*
X117925000Y-53892619D01*
X117305952Y-53892619D01*
X116925000Y-54797380D02*
X116877380Y-54845000D01*
X116782142Y-54892619D01*
X116544047Y-54892619D01*
X116448809Y-54845000D01*
X116401190Y-54797380D01*
X116353571Y-54702142D01*
X116353571Y-54606904D01*
X116401190Y-54464047D01*
X116972619Y-53892619D01*
X116353571Y-53892619D01*
X115925000Y-54273571D02*
X115163095Y-54273571D01*
X114496428Y-54892619D02*
X114401190Y-54892619D01*
X114305952Y-54845000D01*
X114258333Y-54797380D01*
X114210714Y-54702142D01*
X114163095Y-54511666D01*
X114163095Y-54273571D01*
X114210714Y-54083095D01*
X114258333Y-53987857D01*
X114305952Y-53940238D01*
X114401190Y-53892619D01*
X114496428Y-53892619D01*
X114591666Y-53940238D01*
X114639285Y-53987857D01*
X114686904Y-54083095D01*
X114734523Y-54273571D01*
X114734523Y-54511666D01*
X114686904Y-54702142D01*
X114639285Y-54797380D01*
X114591666Y-54845000D01*
X114496428Y-54892619D01*
X113210714Y-53892619D02*
X113782142Y-53892619D01*
X113496428Y-53892619D02*
X113496428Y-54892619D01*
X113591666Y-54749761D01*
X113686904Y-54654523D01*
X113782142Y-54606904D01*
X112782142Y-54273571D02*
X112020238Y-54273571D01*
X111353571Y-54892619D02*
X111258333Y-54892619D01*
X111163095Y-54845000D01*
X111115476Y-54797380D01*
X111067857Y-54702142D01*
X111020238Y-54511666D01*
X111020238Y-54273571D01*
X111067857Y-54083095D01*
X111115476Y-53987857D01*
X111163095Y-53940238D01*
X111258333Y-53892619D01*
X111353571Y-53892619D01*
X111448809Y-53940238D01*
X111496428Y-53987857D01*
X111544047Y-54083095D01*
X111591666Y-54273571D01*
X111591666Y-54511666D01*
X111544047Y-54702142D01*
X111496428Y-54797380D01*
X111448809Y-54845000D01*
X111353571Y-54892619D01*
X110686904Y-54892619D02*
X110020238Y-54892619D01*
X110448809Y-53892619D01*
M02*
