%TF.GenerationSoftware,KiCad,Pcbnew,6.0.0*%
%TF.CreationDate,2022-01-07T19:15:52+01:00*%
%TF.ProjectId,apu-m2-holder,6170752d-6d32-42d6-986f-6c6465722e6b,rev?*%
%TF.SameCoordinates,Original*%
%TF.FileFunction,Legend,Bot*%
%TF.FilePolarity,Positive*%
%FSLAX46Y46*%
G04 Gerber Fmt 4.6, Leading zero omitted, Abs format (unit mm)*
G04 Created by KiCad (PCBNEW 6.0.0) date 2022-01-07 19:15:52*
%MOMM*%
%LPD*%
G01*
G04 APERTURE LIST*
%ADD10C,0.150000*%
G04 APERTURE END LIST*
D10*
X119544047Y-54602380D02*
X119544047Y-55316666D01*
X119591666Y-55459523D01*
X119686904Y-55554761D01*
X119829761Y-55602380D01*
X119925000Y-55602380D01*
X118591666Y-55602380D02*
X119067857Y-55602380D01*
X119067857Y-54602380D01*
X117686904Y-55507142D02*
X117734523Y-55554761D01*
X117877380Y-55602380D01*
X117972619Y-55602380D01*
X118115476Y-55554761D01*
X118210714Y-55459523D01*
X118258333Y-55364285D01*
X118305952Y-55173809D01*
X118305952Y-55030952D01*
X118258333Y-54840476D01*
X118210714Y-54745238D01*
X118115476Y-54650000D01*
X117972619Y-54602380D01*
X117877380Y-54602380D01*
X117734523Y-54650000D01*
X117686904Y-54697619D01*
X116972619Y-54602380D02*
X116972619Y-55316666D01*
X117020238Y-55459523D01*
X117115476Y-55554761D01*
X117258333Y-55602380D01*
X117353571Y-55602380D01*
X116020238Y-55602380D02*
X116496428Y-55602380D01*
X116496428Y-54602380D01*
X115115476Y-55507142D02*
X115163095Y-55554761D01*
X115305952Y-55602380D01*
X115401190Y-55602380D01*
X115544047Y-55554761D01*
X115639285Y-55459523D01*
X115686904Y-55364285D01*
X115734523Y-55173809D01*
X115734523Y-55030952D01*
X115686904Y-54840476D01*
X115639285Y-54745238D01*
X115544047Y-54650000D01*
X115401190Y-54602380D01*
X115305952Y-54602380D01*
X115163095Y-54650000D01*
X115115476Y-54697619D01*
X114401190Y-54602380D02*
X114401190Y-55316666D01*
X114448809Y-55459523D01*
X114544047Y-55554761D01*
X114686904Y-55602380D01*
X114782142Y-55602380D01*
X113448809Y-55602380D02*
X113925000Y-55602380D01*
X113925000Y-54602380D01*
X112544047Y-55507142D02*
X112591666Y-55554761D01*
X112734523Y-55602380D01*
X112829761Y-55602380D01*
X112972619Y-55554761D01*
X113067857Y-55459523D01*
X113115476Y-55364285D01*
X113163095Y-55173809D01*
X113163095Y-55030952D01*
X113115476Y-54840476D01*
X113067857Y-54745238D01*
X112972619Y-54650000D01*
X112829761Y-54602380D01*
X112734523Y-54602380D01*
X112591666Y-54650000D01*
X112544047Y-54697619D01*
X111829761Y-54602380D02*
X111829761Y-55316666D01*
X111877380Y-55459523D01*
X111972619Y-55554761D01*
X112115476Y-55602380D01*
X112210714Y-55602380D01*
X110877380Y-55602380D02*
X111353571Y-55602380D01*
X111353571Y-54602380D01*
X109972619Y-55507142D02*
X110020238Y-55554761D01*
X110163095Y-55602380D01*
X110258333Y-55602380D01*
X110401190Y-55554761D01*
X110496428Y-55459523D01*
X110544047Y-55364285D01*
X110591666Y-55173809D01*
X110591666Y-55030952D01*
X110544047Y-54840476D01*
X110496428Y-54745238D01*
X110401190Y-54650000D01*
X110258333Y-54602380D01*
X110163095Y-54602380D01*
X110020238Y-54650000D01*
X109972619Y-54697619D01*
M02*
